<svg width="46.000000" height="60.000000" viewBox="0 0 46 60" fill="none" xmlns="http://www.w3.org/2000/svg" xmlns:xlink="http://www.w3.org/1999/xlink">
	<desc>
			Created with Pixso.
	</desc>
	<defs>
		<clipPath id="clip1755_44">
			<rect id="logo-2 2" width="46.000000" height="60.000000" fill="white" fill-opacity="0"/>
		</clipPath>
	</defs>
	<rect id="logo-2 2" width="46.000000" height="60.000000" fill="#FFFFFF" fill-opacity="0"/>
	<g clip-path="url(#clip1755_44)">
		<path id="Vector" d="M12 40.14L33.05 40.14L33.05 18.79L12 18.79L12 40.14Z" fill="#FFFFFF" fill-opacity="1.000000" fill-rule="evenodd"/>
		<path id="Vector" d="M7.44 50.32C7.44 51.19 7.09 51.9 6.39 52.43C5.75 52.92 4.98 53.16 4.08 53.16C3.69 53.16 3.12 53.05 2.36 52.84C2.03 52.75 1.83 52.71 1.78 52.71C1.64 52.71 1.53 52.77 1.45 52.89L1.17 52.89L0.82 50.37L1.14 50.37C1.3 51.06 1.63 51.62 2.12 52.04C2.63 52.49 3.23 52.71 3.93 52.71C4.55 52.71 5.08 52.54 5.5 52.21C5.97 51.84 6.21 51.36 6.21 50.75C6.21 50.19 5.89 49.63 5.25 49.08C5.02 48.89 4.47 48.5 3.6 47.95C2.75 47.4 2.15 46.97 1.81 46.63C1.2 46.03 0.9 45.39 0.9 44.7C0.9 43.75 1.38 43.06 2.34 42.61C2.79 42.39 3.29 42.29 3.84 42.29C4.39 42.29 4.94 42.39 5.51 42.58C5.77 42.67 5.96 42.71 6.08 42.71C6.2 42.71 6.3 42.66 6.39 42.54L6.65 42.54L6.93 44.66L6.65 44.66C6.43 44.07 6.08 43.61 5.62 43.26C5.13 42.88 4.59 42.7 3.99 42.7C3.47 42.7 3.05 42.82 2.71 43.08C2.33 43.36 2.15 43.75 2.15 44.25C2.15 44.81 2.46 45.35 3.08 45.87C3.27 46.03 3.82 46.4 4.71 46.96C5.57 47.5 6.18 47.95 6.54 48.32C7.14 48.93 7.44 49.6 7.44 50.32ZM24.59 42.86C23.96 42.86 23.53 43.03 23.32 43.38C23.18 43.59 23.03 43.91 22.85 44.37L19.53 53.16L18.74 53.16L16.57 48.02L14.49 53.16L13.68 53.16L10.25 44.3C10.03 43.73 9.8 43.36 9.56 43.16C9.3 42.96 8.88 42.86 8.3 42.86L8.2 42.86L8.2 42.54L12.48 42.54L12.48 42.86L12.2 42.86C11.6 42.86 11.3 43.05 11.3 43.44C11.3 43.57 11.34 43.73 11.41 43.91L14.41 51.53L16.2 47.08L14.86 43.81C14.69 43.41 14.48 43.15 14.2 43.01C13.98 42.91 13.63 42.86 13.16 42.86L13.16 42.54L19.93 42.54L19.93 42.86C19.49 42.86 19.17 42.91 18.94 43.01C18.65 43.14 18.44 43.39 18.29 43.74L17.24 46.34L19.4 51.53L22.33 43.81C22.41 43.57 22.44 43.39 22.41 43.26C22.35 43.01 21.93 42.88 21.17 42.86L21.17 42.54L24.59 42.54L24.59 42.86ZM17.6 43.57C17.66 43.43 17.68 43.31 17.68 43.22C17.68 42.98 17.52 42.86 17.19 42.86L16.49 42.86C16.14 42.86 15.96 42.97 15.96 43.18C15.96 43.26 15.99 43.36 16.04 43.48L16.86 45.4L17.6 43.57ZM29.46 52.89L25.45 52.89L25.45 52.58C25.96 52.56 26.3 52.44 26.46 52.24C26.61 52.05 26.69 51.68 26.69 51.15L26.69 44.06C26.69 43.61 26.59 43.3 26.4 43.13C26.22 42.98 25.91 42.89 25.45 42.86L25.45 42.54L29.46 42.54L29.46 42.86C28.77 42.86 28.34 43.03 28.2 43.36C28.1 43.56 28.06 43.84 28.06 44.21L28.06 51.26C28.06 51.92 28.23 52.32 28.6 52.46C28.8 52.54 29.09 52.58 29.46 52.58L29.46 52.89ZM37.54 50.32C37.54 51.19 37.19 51.9 36.49 52.43C35.85 52.92 35.08 53.16 34.18 53.16C33.8 53.16 33.22 53.05 32.47 52.84C32.13 52.75 31.94 52.71 31.89 52.71C31.75 52.71 31.64 52.77 31.55 52.89L31.27 52.89L30.92 50.37L31.24 50.37C31.41 51.06 31.74 51.62 32.23 52.04C32.74 52.49 33.34 52.71 34.03 52.71C34.65 52.71 35.18 52.54 35.61 52.21C36.08 51.84 36.31 51.36 36.31 50.75C36.31 50.19 35.99 49.63 35.36 49.08C35.13 48.89 34.58 48.5 33.71 47.95C32.86 47.4 32.26 46.97 31.92 46.63C31.31 46.03 31.01 45.39 31.01 44.7C31.01 43.75 31.49 43.06 32.45 42.61C32.89 42.39 33.39 42.29 33.95 42.29C34.49 42.29 35.05 42.39 35.62 42.58C35.87 42.67 36.06 42.71 36.19 42.71C36.31 42.71 36.41 42.66 36.49 42.54L36.75 42.54L37.04 44.66L36.75 44.66C36.53 44.07 36.19 43.61 35.72 43.26C35.23 42.88 34.69 42.7 34.09 42.7C33.58 42.7 33.15 42.82 32.81 43.08C32.44 43.36 32.25 43.75 32.25 44.25C32.25 44.81 32.56 45.35 33.19 45.87C33.38 46.03 33.92 46.4 34.82 46.96C35.68 47.5 36.28 47.95 36.64 48.32C37.24 48.93 37.54 49.6 37.54 50.32ZM45.64 50.32C45.64 51.19 45.29 51.9 44.58 52.43C43.95 52.92 43.18 53.16 42.28 53.16C41.89 53.16 41.32 53.05 40.56 52.84C40.23 52.75 40.04 52.71 39.98 52.71C39.84 52.71 39.73 52.77 39.65 52.89L39.37 52.89L39.02 50.37L39.34 50.37C39.5 51.06 39.83 51.62 40.32 52.04C40.83 52.49 41.43 52.71 42.13 52.71C42.75 52.71 43.27 52.54 43.7 52.21C44.17 51.84 44.4 51.36 44.4 50.75C44.4 50.19 44.09 49.63 43.45 49.08C43.22 48.89 42.67 48.5 41.8 47.95C40.95 47.4 40.35 46.97 40.01 46.63C39.4 46.03 39.1 45.39 39.1 44.7C39.1 43.75 39.58 43.06 40.54 42.61C40.99 42.39 41.49 42.29 42.04 42.29C42.59 42.29 43.14 42.39 43.71 42.58C43.96 42.67 44.15 42.71 44.28 42.71C44.4 42.71 44.5 42.66 44.58 42.54L44.85 42.54L45.13 44.66L44.85 44.66C44.63 44.07 44.28 43.61 43.82 43.26C43.33 42.88 42.79 42.7 42.19 42.7C41.67 42.7 41.25 42.82 40.91 43.08C40.53 43.36 40.34 43.75 40.34 44.25C40.34 44.81 40.66 45.35 41.28 45.87C41.47 46.03 42.02 46.4 42.91 46.96C43.77 47.5 44.38 47.95 44.74 48.32C45.34 48.93 45.64 49.6 45.64 50.32Z" fill="#474B56" fill-opacity="1.000000" fill-rule="evenodd"/>
		<path id="Vector" d="M22.62 0.21L0 40.31L18.99 40.23L18.99 32.71L12.17 32.71L12.17 25.83L18.99 25.83L18.99 18.97L25.82 18.97L25.82 25.83L32.64 25.83L32.64 32.71L25.82 32.71L25.82 40.18L45.54 40.05L22.62 0.21Z" fill="#D9222A" fill-opacity="1.000000" fill-rule="evenodd"/>
		<mask id="mask1755_50" mask-type="alpha" maskUnits="userSpaceOnUse" x="0.468750" y="53.857635" width="26.252930" height="5.564171">
			<path id="Vector" d="M0.46 59.42L26.72 59.42L26.72 53.85L0.46 53.85L0.46 59.42Z" fill="#FFFFFF" fill-opacity="1.000000" fill-rule="nonzero"/>
		</mask>
		<g mask="url(#mask1755_50)">
			<path id="Vector" d="M6.06 57.18C5.67 57.2 5.47 57.38 5.47 57.72L5.47 58.91C4.78 59.27 4.03 59.45 3.19 59.45C2.66 59.45 2.19 59.33 1.77 59.1C1.34 58.86 0.99 58.48 0.77 58.03C0.57 57.64 0.46 57.2 0.46 56.75C0.46 56.01 0.7 55.36 1.19 54.8C1.72 54.17 2.47 53.85 3.43 53.85C3.86 53.85 4.35 53.93 4.89 54.09C5.03 54.12 5.1 54.15 5.12 54.15C5.19 54.15 5.26 54.13 5.32 54.09L5.44 54.09L5.44 55.47L5.27 55.47C5.07 54.54 4.48 54.07 3.52 54.07C2.81 54.07 2.25 54.33 1.84 54.86C1.45 55.35 1.26 55.96 1.26 56.7C1.26 57.51 1.5 58.14 1.98 58.6C2.42 59.03 2.91 59.24 3.47 59.24C3.9 59.24 4.33 59.13 4.77 58.91L4.77 57.83C4.77 57.58 4.71 57.41 4.61 57.31C4.51 57.22 4.33 57.18 4.09 57.18L3.77 57.18L3.77 57.02L6.06 57.02L6.06 57.18ZM13.04 59.41C12.92 59.41 12.8 59.42 12.68 59.42C12.17 59.42 11.77 59.35 11.47 59.21C11.18 59.09 10.83 58.81 10.41 58.39L9.85 57.82C9.48 57.45 9.18 57.19 8.97 57.06C8.78 57.07 8.59 57.07 8.4 57.07C8.29 57.07 8.14 57.07 7.97 57.06L7.97 58.51C7.97 58.83 8.06 59.02 8.25 59.09C8.34 59.13 8.47 59.15 8.64 59.15L8.83 59.15L8.83 59.31L6.43 59.31L6.43 59.15L6.58 59.15C6.84 59.15 7.02 59.1 7.12 59C7.21 58.89 7.26 58.71 7.26 58.44L7.26 54.83C7.26 54.57 7.21 54.4 7.13 54.29C7.04 54.19 6.87 54.15 6.62 54.15L6.43 54.15L6.43 53.98C6.54 53.98 6.79 53.97 7.18 53.95C7.27 53.94 7.38 53.94 7.5 53.93C7.86 53.92 8.22 53.91 8.58 53.91C9.33 53.91 9.9 54.05 10.3 54.33C10.67 54.6 10.85 54.97 10.85 55.43C10.85 55.77 10.75 56.07 10.53 56.32C10.33 56.55 10.06 56.72 9.72 56.82C9.98 57.02 10.3 57.32 10.69 57.71L11.37 58.39C11.72 58.74 12.07 58.99 12.43 59.12C12.62 59.2 12.83 59.24 13.04 59.25L13.04 59.41ZM10.05 55.48C10.05 54.88 9.83 54.47 9.38 54.25C9.14 54.13 8.81 54.07 8.39 54.07C8.21 54.07 8.06 54.07 7.97 54.09L7.97 56.89C8.06 56.91 8.24 56.91 8.49 56.91C9.53 56.91 10.05 56.44 10.05 55.48ZM19.63 56.5C19.63 57.35 19.34 58.05 18.75 58.61C18.16 59.17 17.45 59.45 16.61 59.45C16.07 59.45 15.57 59.34 15.12 59.14C14.63 58.91 14.24 58.59 13.96 58.16C13.68 57.75 13.54 57.29 13.54 56.77C13.54 56.22 13.67 55.72 13.93 55.27C14.2 54.82 14.59 54.46 15.05 54.23C15.53 53.98 16.06 53.85 16.65 53.85C17.47 53.85 18.17 54.1 18.76 54.61C19.34 55.12 19.63 55.74 19.63 56.5ZM18.83 56.78C18.83 55.99 18.61 55.34 18.16 54.83C17.71 54.32 17.13 54.07 16.43 54.07C15.75 54.07 15.22 54.34 14.84 54.88C14.5 55.35 14.33 55.89 14.33 56.5C14.33 56.99 14.44 57.45 14.64 57.86C14.85 58.3 15.15 58.64 15.55 58.89C15.92 59.12 16.35 59.24 16.79 59.24C17.66 59.24 18.26 58.82 18.6 57.98C18.76 57.6 18.84 57.19 18.83 56.78ZM26.72 54.15C26.44 54.15 26.24 54.21 26.12 54.33C26 54.45 25.94 54.65 25.94 54.93L25.94 57.24C25.94 57.72 25.82 58.14 25.59 58.49C25.35 58.84 25.01 59.1 24.58 59.26C24.26 59.39 23.87 59.45 23.43 59.45C22.64 59.45 22.04 59.24 21.6 58.83C21.18 58.44 20.97 57.92 20.97 57.29L20.97 54.79C20.97 54.46 20.88 54.26 20.71 54.2C20.61 54.17 20.45 54.15 20.24 54.15L20.24 53.98L22.42 53.98L22.42 54.15L22.35 54.15C22.1 54.15 21.93 54.19 21.83 54.28C21.73 54.37 21.68 54.53 21.68 54.77L21.68 57.15C21.68 57.75 21.85 58.21 22.2 58.54C22.54 58.85 23.02 59 23.62 59C24.91 59 25.56 58.38 25.56 57.14L25.56 55.15C25.56 54.64 25.46 54.33 25.27 54.24C25.16 54.19 24.97 54.16 24.72 54.15L24.72 53.98L26.72 53.98L26.72 54.15Z" fill="#1B1A19" fill-opacity="1.000000" fill-rule="evenodd"/>
		</g>
		<path id="Vector" d="M31.3 55.42C31.3 55.97 31.08 56.4 30.65 56.68C30.28 56.93 29.81 57.06 29.24 57.06C28.99 57.06 28.75 57.03 28.52 56.99L28.52 58.49C28.52 58.74 28.57 58.91 28.67 59.01C28.77 59.1 28.95 59.15 29.2 59.15L29.48 59.15L29.48 59.31L27.13 59.31L27.13 59.15L27.24 59.15C27.46 59.15 27.6 59.12 27.68 59.06C27.77 58.99 27.81 58.86 27.81 58.65L27.81 54.6C27.81 54.3 27.68 54.15 27.41 54.15L26.99 54.15L26.99 53.98C27.46 53.96 27.81 53.94 28.06 53.93C28.41 53.92 28.76 53.91 29.11 53.91C29.93 53.91 30.51 54.07 30.86 54.4C31.15 54.67 31.3 55.01 31.3 55.42ZM30.5 55.4C30.5 54.51 30.04 54.07 29.11 54.07C28.85 54.07 28.66 54.08 28.52 54.1L28.52 56.83C28.71 56.87 28.86 56.89 28.98 56.89C29.61 56.89 30.05 56.65 30.32 56.17C30.44 55.94 30.5 55.68 30.5 55.4Z" fill="#1B1A19" fill-opacity="1.000000" fill-rule="evenodd"/>
		<mask id="mask1755_55" mask-type="alpha" maskUnits="userSpaceOnUse" x="33.719727" y="53.857635" width="11.806152" height="5.564171">
			<path id="Vector" d="M33.71 59.42L45.52 59.42L45.52 53.85L33.71 53.85L33.71 59.42Z" fill="#FFFFFF" fill-opacity="1.000000" fill-rule="nonzero"/>
		</mask>
		<g mask="url(#mask1755_55)">
			<path id="Vector" d="M39.39 59.31L37.06 59.31L37.06 59.15L37.28 59.15C37.48 59.15 37.62 59.14 37.7 59.12C37.86 59.09 37.94 59 37.94 58.86C37.94 58.79 37.91 58.67 37.85 58.51L37.28 56.95L35.52 56.95L35.03 58.29C34.91 58.6 34.86 58.78 34.86 58.83C34.86 59.04 35.09 59.15 35.54 59.15L35.68 59.15L35.68 59.31L33.71 59.31L33.71 59.15C34.06 59.14 34.28 59.05 34.39 58.87C34.46 58.75 34.54 58.56 34.63 58.3L36.18 54.04L36.11 53.85L36.84 53.85L38.62 58.61C38.73 58.89 38.87 59.06 39.04 59.11C39.13 59.14 39.25 59.15 39.39 59.15L39.39 59.31ZM37.13 56.57L36.38 54.57L35.66 56.57L37.13 56.57ZM45.52 57.18C45.13 57.2 44.93 57.38 44.93 57.72L44.93 58.91C44.24 59.27 43.48 59.45 42.65 59.45C42.12 59.45 41.65 59.33 41.23 59.1C40.8 58.86 40.45 58.48 40.23 58.03C40.03 57.64 39.93 57.2 39.93 56.75C39.93 56.01 40.16 55.36 40.65 54.8C41.18 54.17 41.93 53.85 42.89 53.85C43.32 53.85 43.81 53.93 44.35 54.09C44.48 54.12 44.56 54.15 44.58 54.15C44.65 54.15 44.72 54.13 44.78 54.09L44.9 54.09L44.9 55.47L44.73 55.47C44.53 54.54 43.95 54.07 42.98 54.07C42.27 54.07 41.71 54.33 41.3 54.86C40.91 55.35 40.72 55.96 40.72 56.7C40.72 57.51 40.96 58.14 41.44 58.6C41.88 59.03 42.37 59.24 42.93 59.24C43.36 59.24 43.79 59.13 44.23 58.91L44.23 57.83C44.23 57.58 44.18 57.41 44.07 57.31C43.97 57.22 43.79 57.18 43.54 57.18L43.23 57.18L43.23 57.02L45.52 57.02L45.52 57.18Z" fill="#1B1A19" fill-opacity="1.000000" fill-rule="evenodd"/>
		</g>
	</g>
</svg>
