<svg width="21" height="22" viewBox="0 0 21 22" fill="none" xmlns="http://www.w3.org/2000/svg">
<g clip-path="url(#clip0_1755_422)">
<path d="M20.9999 11.2527C20.9999 10.505 20.9408 9.7532 20.8149 9.01758H10.7104V13.2535H16.4968C16.2567 14.6196 15.4851 15.8282 14.3554 16.5961V19.3446H17.8075C19.8347 17.4287 20.9999 14.5994 20.9999 11.2527Z" fill="white"/>
<path d="M10.7107 22.0001C13.5999 22.0001 16.0365 21.026 17.8117 19.3445L14.3596 16.5961C13.3992 17.267 12.1593 17.647 10.7146 17.647C7.91989 17.647 5.55025 15.7109 4.70002 13.1079H1.1377V15.9413C2.95625 19.6558 6.66028 22.0001 10.7107 22.0001Z" fill="white"/>
<path d="M4.69599 13.1075C4.24725 11.7414 4.24725 10.262 4.69599 8.89586V6.0625H1.1376C-0.381803 9.17071 -0.381803 12.8327 1.1376 15.9409L4.69599 13.1075Z" fill="white"/>
<path d="M10.7107 4.35337C12.238 4.32912 13.7141 4.91923 14.8202 6.00246L17.8786 2.86191C15.942 0.994558 13.3716 -0.0320821 10.7107 0.000252996C6.66028 0.000252996 2.95625 2.34455 1.1377 6.06309L4.69608 8.89645C5.54238 6.28943 7.91595 4.35337 10.7107 4.35337Z" fill="white"/>
</g>
<defs>
<clipPath id="clip0_1755_422">
<rect width="21" height="22" fill="white"/>
</clipPath>
</defs>
</svg>
