<svg width="28.000000" height="28.000000" viewBox="0 0 28 28" fill="none" xmlns="http://www.w3.org/2000/svg" xmlns:xlink="http://www.w3.org/1999/xlink">
	<desc>
			Created with Pixso.
	</desc>
	<defs>
		<clipPath id="clip426_33">
			<rect id="instagram 1" width="28.000000" height="28.000000" fill="white" fill-opacity="0"/>
		</clipPath>
	</defs>
	<rect id="instagram 1" width="28.000000" height="28.000000" fill="#FFFFFF" fill-opacity="0"/>
	<g clip-path="url(#clip426_33)">
		<path id="Vector" d="M19.02 5.3L8.97 5.3C6.95 5.3 5.3 6.95 5.3 8.97L5.3 19.02C5.3 21.04 6.95 22.69 8.97 22.69L19.02 22.69C21.04 22.69 22.69 21.04 22.69 19.02L22.69 8.97C22.69 6.95 21.04 5.3 19.02 5.3ZM21.81 19.02C21.81 20.56 20.55 21.81 19.02 21.81L8.97 21.81C7.43 21.81 6.18 20.56 6.18 19.02L6.18 8.97C6.18 7.44 7.43 6.18 8.97 6.18L19.02 6.18C20.55 6.18 21.81 7.44 21.81 8.97L21.81 19.02L21.81 19.02Z" fill="#000000" fill-opacity="1.000000" fill-rule="nonzero"/>
		<circle id="Ellipse 23" cx="14.000000" cy="14.000000" r="4.000000" fill="#C4C4C4" fill-opacity="0"/>
		<circle id="Ellipse 23" cx="14.000000" cy="14.000000" r="3.500000" stroke="#000000" stroke-opacity="1.000000" stroke-width="1.000000"/>
		<path id="Vector" d="M19.89 8.69C19.89 9.34 19.36 9.87 18.71 9.87C18.06 9.87 17.53 9.34 17.53 8.69C17.53 8.04 18.06 7.51 18.71 7.51C19.36 7.51 19.89 8.04 19.89 8.69Z" fill="#000000" fill-opacity="1.000000" fill-rule="evenodd"/>
	</g>
</svg>
