<svg width="20.000000" height="20.000000" viewBox="0 0 20 20" fill="none" xmlns="http://www.w3.org/2000/svg" xmlns:xlink="http://www.w3.org/1999/xlink">
	<desc>
			Created with Pixso.
	</desc>
	<defs>
		<clipPath id="clip627_8">
			<rect id="phone 2" width="20.000000" height="20.000000" transform="matrix(-1 0 0 1 20 0)" fill="white" fill-opacity="0"/>
		</clipPath>
	</defs>
	<rect id="phone 2" width="20.000000" height="20.000000" transform="matrix(-1 0 0 1 20 0)" fill="#FFFFFF" fill-opacity="0"/>
	<g clip-path="url(#clip627_8)">
		<path id="Vector" d="M1.66 16.6C1.66 16.83 1.71 17.06 1.8 17.27C1.89 17.48 2.03 17.67 2.2 17.83C2.37 17.99 2.57 18.11 2.79 18.18C3.01 18.26 3.25 18.28 3.48 18.26C6.04 17.98 8.51 17.11 10.67 15.71C12.68 14.42 14.39 12.72 15.67 10.71C17.08 8.53 17.95 6.05 18.23 3.48C18.25 3.25 18.22 3.02 18.15 2.8C18.07 2.58 17.96 2.38 17.8 2.21C17.64 2.03 17.45 1.9 17.24 1.8C17.03 1.71 16.8 1.66 16.57 1.66L14.07 1.66C13.67 1.66 13.27 1.8 12.97 2.07C12.66 2.33 12.46 2.69 12.4 3.1C12.3 3.9 12.1 4.68 11.82 5.44C11.71 5.74 11.68 6.06 11.75 6.37C11.82 6.68 11.97 6.97 12.2 7.2L13.25 8.25C12.07 10.34 10.34 12.07 8.25 13.25L7.2 12.2C6.97 11.97 6.68 11.82 6.37 11.75C6.06 11.69 5.74 11.71 5.44 11.82C4.68 12.1 3.9 12.3 3.1 12.41C2.69 12.46 2.32 12.67 2.06 12.98C1.79 13.29 1.65 13.69 1.66 14.1L1.66 16.6Z" stroke="#EE1C1F" stroke-opacity="1.000000" stroke-width="1.000000" stroke-linejoin="round"/>
	</g>
</svg>
