<svg width="46" height="46" viewBox="0 0 46 46" fill="none" xmlns="http://www.w3.org/2000/svg">
<path d="M10.925 32.2C12.765 34.96 19.7417 41.4 23 44.275L26.45 41.975L35.075 32.2L37.95 26.45L40.25 21.275L39.675 15.525L36.8 8.05C33.925 5.94167 26.1918 1.87443 23 2.3C14.375 3.45 8.86317 9.53683 8.05 10.35C7.475 10.925 6.13333 17.25 5.75 20.7C6.70833 23.3833 9.085 29.44 10.925 32.2Z" fill="#EE1C1F"/>
<path d="M40.25 19.1667C40.25 32.5833 23 44.0833 23 44.0833C23 44.0833 5.75 32.5833 5.75 19.1667C5.75 14.5917 7.56741 10.2041 10.8024 6.96908C14.0374 3.73408 18.425 1.91667 23 1.91667C27.575 1.91667 31.9626 3.73408 35.1976 6.96908C38.4326 10.2041 40.25 14.5917 40.25 19.1667Z" stroke="#EE1C1F" stroke-width="2" stroke-linecap="round" stroke-linejoin="round"/>
<path d="M23 24.9167C26.1756 24.9167 28.75 22.3423 28.75 19.1667C28.75 15.991 26.1756 13.4167 23 13.4167C19.8244 13.4167 17.25 15.991 17.25 19.1667C17.25 22.3423 19.8244 24.9167 23 24.9167Z" fill="white" stroke="#EE1C1F" stroke-width="2" stroke-linecap="round" stroke-linejoin="round"/>
</svg>
