<svg width="12" height="23" viewBox="0 0 12 23" fill="none" xmlns="http://www.w3.org/2000/svg">
<path d="M8.76345 12.1109H7.51671C5.55766 12.1109 3.6579 10.6863 3.6579 7.1239C3.6579 3.41372 5.43908 1.89976 7.24949 1.89976H8.76345V12.1109ZM10.7225 0H7.33884C4.01365 0 1.19446 2.52354 1.19446 7.42117C1.19446 10.3597 2.55979 12.5267 4.99398 13.5948L0.452102 21.7876C0.303468 22.0548 0.452102 22.2627 0.689268 22.2627H2.79695C2.97483 22.2627 3.09422 22.2034 3.15351 22.0548L7.27954 14.0106H8.76345V22.0548C8.76345 22.1441 8.8528 22.2627 8.97138 22.2627H10.8118C10.9897 22.2627 11.049 22.1734 11.049 22.0255V0.296459C11.049 0.0893459 10.9304 0 10.7225 0Z" fill="white"/>
</svg>
