<svg width="15" height="15" viewBox="0 0 15 15" fill="none" xmlns="http://www.w3.org/2000/svg">
<g clip-path="url(#clip0_308_23)">
<circle cx="10.5" cy="10.4999" r="4.5" fill="url(#paint0_linear_308_23)"/>
<path d="M5.71986 4.5804C5.41407 4.52008 5.18724 4.68573 5.00497 4.81873C4.93988 4.86621 4.87839 4.91109 4.81893 4.94285C4.64204 5.03726 4.42866 5.0611 4.20275 5.08628C4.08965 5.0989 3.97269 5.11195 3.85652 5.13452C3.43178 5.21703 2.99513 5.50141 2.97713 5.95073C2.95761 6.43803 3.44907 6.74805 3.65894 6.88047C3.75977 6.94406 3.86406 7.00984 3.98511 7.05764C4.15408 7.12444 4.33179 7.14449 4.49198 7.14449C4.60241 7.14449 4.70452 7.13495 4.78966 7.12464C5.3107 7.06148 5.69196 6.88227 5.9228 6.59202C6.20043 6.24296 6.22289 5.7864 6.21563 5.47333C6.20964 5.214 6.19713 4.67436 5.71986 4.5804ZM5.62488 6.35504C5.4585 6.56423 5.16206 6.69603 4.74386 6.74673C4.47403 6.77943 4.28317 6.76615 4.12501 6.70362C4.03705 6.66887 3.95203 6.61528 3.86203 6.55851C3.62215 6.40716 3.348 6.20305 3.3575 5.96596C3.36669 5.73654 3.65201 5.56203 3.9291 5.50819C4.03017 5.48856 4.13448 5.47691 4.24494 5.4646C4.4966 5.43652 4.75681 5.4075 4.99816 5.27864C5.0812 5.23431 5.1565 5.17935 5.22933 5.12622C5.3764 5.01891 5.47942 4.94848 5.59209 4.94848C5.60986 4.94848 5.62786 4.95024 5.64629 4.95387C5.77556 4.97933 5.82671 5.12249 5.83504 5.48214C5.84443 5.88561 5.77764 6.16299 5.62488 6.35504Z" fill="#EE1C1F"/>
<path d="M13.5432 2.88749C13.5432 1.84671 12.6964 0.999939 11.6556 0.999939C10.8602 0.999939 10.1786 1.49475 9.90121 2.19251C9.15654 1.85517 8.34213 1.67698 7.50013 1.67698C5.94477 1.67698 4.48249 2.28268 3.38266 3.38251C2.28286 4.48231 1.67716 5.94461 1.67716 7.49995C1.67716 8.55 1.95332 9.5576 2.47113 10.4399C1.86901 10.7556 1.45703 11.3866 1.45703 12.1124C1.45703 13.1532 2.3038 13.9999 3.34461 13.9999C4.14 13.9999 4.82158 13.5052 5.09901 12.8074C5.8437 13.1448 6.65813 13.3229 7.50013 13.3229C8.71532 13.3229 9.87963 12.9524 10.8672 12.2513C10.9529 12.1905 10.9731 12.0716 10.9122 11.9859C10.8514 11.9002 10.7325 11.88 10.6469 11.9409C10.4394 12.0882 10.2234 12.2197 10.0005 12.3354C9.9974 12.2096 9.97326 12.0869 9.92708 11.9736C9.75854 11.5614 9.38515 11.3517 9.02405 11.1489C8.827 11.0381 8.64089 10.9336 8.49022 10.7997C8.39164 10.7124 8.32581 10.6238 8.29456 10.5363C8.2527 10.4192 8.258 10.2854 8.26361 10.1437C8.26694 10.0597 8.27039 9.97272 8.26466 9.88257C8.24876 9.63751 8.17593 9.369 8.05407 9.10614C7.82983 8.62171 7.47873 8.27762 7.06541 8.13721C6.67575 8.00489 6.24359 8.05336 5.8157 8.27739C5.65818 8.35977 5.23975 8.57861 5.24793 8.97804C5.25658 9.40053 5.7171 9.58677 5.96431 9.68676C6.2376 9.7976 6.40708 9.91161 6.51389 10.0564C6.67448 10.2739 6.59715 10.4319 6.36806 10.7665C6.31782 10.8399 6.26586 10.9158 6.22003 10.9944C5.93159 11.4903 5.75998 12.0719 5.72916 12.6481C5.55041 12.5868 5.37504 12.5163 5.2038 12.4365C5.22213 12.3311 5.23221 12.2229 5.23221 12.1124C5.23221 11.0716 4.38544 10.2248 3.34463 10.2248C3.16599 10.2248 2.99328 10.2503 2.82939 10.2969C2.32655 9.46059 2.05786 8.50098 2.05786 7.49993C2.05786 6.04623 2.62396 4.67954 3.65189 3.65163C4.6798 2.6237 6.04649 2.0576 7.50018 2.0576C7.78909 2.0576 8.07446 2.08032 8.3545 2.12424C8.3021 2.30179 8.22069 2.47783 8.11383 2.64155C8.08885 2.67975 8.05879 2.7187 8.02196 2.76051L7.99941 2.78528C7.92866 2.86302 7.93432 2.9834 8.01208 3.05416C8.08979 3.12486 8.21018 3.11922 8.28095 3.04149L8.30451 3.01559C8.30515 3.01488 8.30581 3.01417 8.30644 3.01344C8.35597 2.95736 8.3972 2.90379 8.43259 2.84964C8.5664 2.64462 8.66754 2.42218 8.73002 2.1973C8.77389 2.20743 8.81748 2.2183 8.86094 2.22947C8.86089 2.22911 8.86086 2.22876 8.86081 2.2284C9.18312 2.31101 9.49591 2.42355 9.79646 2.56358C9.77816 2.66889 9.76808 2.77698 9.76808 2.88744C9.76808 3.92825 10.6149 4.77502 11.6556 4.77502C11.834 4.77502 12.0065 4.74961 12.1701 4.70317C12.4104 5.10268 12.5977 5.53007 12.7273 5.97703C12.727 5.97693 12.7267 5.97683 12.7265 5.97672C12.7351 6.00625 12.7434 6.03588 12.7516 6.06563C12.7338 6.0733 12.7158 6.08005 12.6976 6.08594C12.5391 6.13722 12.2948 6.11978 12.0362 6.1013C11.5306 6.0652 10.9014 6.02034 10.6194 6.54044C10.4272 6.89588 10.4929 7.27972 10.5457 7.58787L10.5482 7.60264C10.608 7.95333 10.6028 8.16115 10.533 8.22025C10.458 8.28367 10.2152 8.28019 9.84173 8.12939C9.56237 8.01662 9.28289 7.84925 9.011 7.63189C8.64231 7.33717 8.26549 6.95482 7.85903 6.46298C7.44954 5.96769 7.3272 5.59709 7.47411 5.29641C7.48445 5.27521 7.49658 5.253 7.50943 5.22944C7.55332 5.14909 7.60305 5.05803 7.61701 4.94399C7.64293 4.73338 7.56208 4.58246 7.49711 4.46119C7.46591 4.40298 7.43646 4.34799 7.42075 4.2912C7.35761 4.06252 7.42034 3.87473 7.6373 3.64313C7.70917 3.56641 7.70521 3.44595 7.62849 3.3741C7.55177 3.30223 7.43131 3.30619 7.35947 3.38291C7.16569 3.58979 6.9232 3.91951 7.05384 4.39262C7.0809 4.49036 7.12375 4.57038 7.16158 4.64098C7.21994 4.74991 7.2499 4.81079 7.23921 4.89764C7.23408 4.9395 7.20557 4.99172 7.17539 5.04699C7.16099 5.07334 7.14612 5.1006 7.13203 5.12954C6.80908 5.79044 7.37856 6.47923 7.56566 6.70555C7.98896 7.21775 8.384 7.618 8.77335 7.92927C9.07411 8.1697 9.38566 8.35581 9.69931 8.48242C9.90291 8.56457 10.1495 8.63933 10.3726 8.63933C10.5264 8.63931 10.6691 8.60384 10.7789 8.5109C11.0501 8.28148 10.9678 7.79827 10.9235 7.53869L10.921 7.52389C10.8736 7.2473 10.8247 6.9613 10.9543 6.7217C11.1077 6.43871 11.4715 6.44265 12.0091 6.48103C12.3057 6.5022 12.5859 6.52218 12.8148 6.44816C12.8232 6.44544 12.8315 6.44229 12.8398 6.43935C12.9077 6.78499 12.9426 7.13979 12.9426 7.49993C12.9426 8.97868 12.3596 10.362 11.3011 11.3951C11.2259 11.4685 11.2244 11.589 11.2979 11.6642C11.3713 11.7394 11.4918 11.7409 11.567 11.6675C12.6995 10.5622 13.3232 9.08215 13.3232 7.49995C13.3232 6.44988 13.0466 5.44251 12.5288 4.56022C13.131 4.24454 13.5432 3.61342 13.5432 2.88749ZM6.54902 11.1859C6.58779 11.1193 6.63361 11.0524 6.68215 10.9815C6.88273 10.6885 7.15741 10.2873 6.82015 9.83033C6.62681 9.56826 6.33768 9.42741 6.10722 9.33389C5.87731 9.2409 5.63175 9.12846 5.6285 8.97022C5.62624 8.86012 5.74518 8.7438 5.99219 8.61463C6.33034 8.43753 6.65024 8.39818 6.94297 8.4976C7.26119 8.6057 7.52595 8.87139 7.70866 9.26608C7.81102 9.48679 7.8719 9.70849 7.88477 9.90687C7.88924 9.97721 7.88632 10.0507 7.88324 10.1286C7.87677 10.2922 7.86943 10.4777 7.93607 10.6643C7.98916 10.8129 8.09068 10.9543 8.23759 11.0844C8.41868 11.2454 8.63165 11.365 8.83761 11.4807C9.15586 11.6594 9.45643 11.8283 9.57466 12.1174C9.62401 12.2385 9.63406 12.3791 9.60444 12.5204C9.58735 12.5275 9.57014 12.5342 9.55303 12.5412C9.55318 12.5415 9.55331 12.5418 9.55344 12.5421C8.90717 12.8057 8.21307 12.9422 7.50013 12.9422C7.05813 12.9422 6.62437 12.8893 6.20562 12.7874C6.20577 12.7872 6.20592 12.787 6.20607 12.7867C6.17238 12.7785 6.13862 12.7707 6.10511 12.7618C6.11821 12.222 6.27893 11.6502 6.54902 11.1859ZM3.93112 13.5004C3.93036 13.5007 3.92959 13.501 3.92883 13.5014C3.902 13.5125 3.87484 13.523 3.84747 13.5327C3.6901 13.5886 3.52092 13.6193 3.34463 13.6193C3.17104 13.6193 2.99704 13.589 2.83385 13.5302C2.80819 13.5209 2.7828 13.5109 2.75769 13.5003C2.75368 13.4986 2.7498 13.4966 2.74581 13.4949C2.79938 13.4272 2.86434 13.3687 2.93847 13.3219C3.01491 13.2739 3.07861 13.2067 3.12303 13.1268C3.16678 13.0475 3.18988 12.9577 3.18988 12.8671C3.18988 12.6985 3.11016 12.5384 2.97658 12.4387C2.81885 12.321 2.72837 12.1409 2.72837 11.9444C2.72837 11.7716 2.79793 11.6115 2.92428 11.4936C3.05045 11.3758 3.21531 11.3174 3.38878 11.3295C3.68824 11.3502 3.93323 11.5911 3.95864 11.8898C3.97687 12.1039 3.88568 12.3084 3.71487 12.4369C3.64877 12.4865 3.59411 12.5519 3.55628 12.6268C3.51914 12.7015 3.49949 12.7846 3.49949 12.8671C3.49949 13.053 3.59335 13.223 3.75047 13.3218C3.8248 13.3686 3.88986 13.4271 3.94348 13.4948C3.93932 13.4966 3.93531 13.4987 3.93112 13.5004ZM3.34463 10.6055C4.17554 10.6055 4.85154 11.2815 4.85154 12.1124C4.85154 12.5937 4.62448 13.0226 4.27214 13.2987C4.18661 13.1802 4.07879 13.0786 3.95315 12.9996C3.90743 12.9708 3.88017 12.9213 3.88017 12.8671C3.88017 12.8428 3.88585 12.819 3.89662 12.7974C3.90789 12.775 3.92368 12.7561 3.94361 12.7412C4.21989 12.5333 4.36731 12.203 4.33794 11.8576C4.29676 11.3736 3.90004 10.9833 3.41506 10.9497C3.13522 10.9305 2.86868 11.0247 2.66455 11.2152C2.46321 11.4032 2.34772 11.6689 2.34772 11.9443C2.34772 12.2576 2.49776 12.5564 2.74899 12.7438C2.78671 12.7719 2.80925 12.818 2.80925 12.8671C2.80925 12.8936 2.8025 12.9198 2.79006 12.9424C2.77704 12.9658 2.75838 12.9855 2.73584 12.9997C2.6104 13.0788 2.50309 13.1806 2.41759 13.299C2.06504 13.023 1.83781 12.5938 1.83781 12.1124C1.8377 11.2815 2.5137 10.6055 3.34463 10.6055ZM12.2188 4.2848C12.0447 4.35525 11.8547 4.3944 11.6556 4.3944C11.4537 4.3944 11.2612 4.35421 11.085 4.28188C11.0828 4.28094 11.0582 4.26876 11.0568 4.26998C11.1104 4.20224 11.1753 4.14373 11.2495 4.09697C11.3259 4.04898 11.3896 3.98173 11.434 3.90189C11.4777 3.82259 11.5009 3.73279 11.5009 3.64221C11.5009 3.47357 11.4211 3.31338 11.2876 3.21374C11.1298 3.09612 11.0393 2.91598 11.0393 2.71943C11.0393 2.54665 11.1089 2.38654 11.2352 2.26864C11.3614 2.15087 11.5265 2.09251 11.6997 2.10451C11.9992 2.12528 12.2442 2.3662 12.2696 2.66488C12.2878 2.87896 12.1966 3.08348 12.0258 3.21196C11.9597 3.26162 11.905 3.32699 11.8673 3.40188C11.8301 3.47651 11.8104 3.55963 11.8104 3.64219C11.8104 3.82809 11.9043 3.99808 12.0614 4.09686C12.1358 4.14365 12.2008 4.20219 12.2545 4.26993C12.254 4.26942 12.2209 4.28396 12.2188 4.2848ZM12.2642 3.77468C12.2184 3.74594 12.1911 3.69644 12.1911 3.64224C12.1911 3.61789 12.1968 3.59413 12.2076 3.57248C12.2189 3.55016 12.2347 3.53127 12.2546 3.51629C12.5309 3.30848 12.6783 2.97815 12.6489 2.63266C12.6077 2.14874 12.211 1.75844 11.726 1.72478C11.4462 1.70561 11.1797 1.79982 10.9755 1.9904C10.7742 2.17834 10.6587 2.44409 10.6587 2.71948C10.6587 3.03273 10.8087 3.33158 11.06 3.51894C11.0977 3.54706 11.1202 3.59317 11.1202 3.64226C11.1202 3.66872 11.1135 3.69492 11.101 3.71746C11.088 3.74089 11.0693 3.76069 11.0468 3.77483C10.9213 3.85389 10.8143 3.95594 10.729 4.07452C10.3761 3.79847 10.1487 3.3692 10.1487 2.88752C10.1487 2.05661 10.8247 1.38064 11.6556 1.38064C12.4865 1.38064 13.1625 2.05661 13.1625 2.88752C13.1625 3.36908 12.9352 3.79829 12.5825 4.07435C12.497 3.95574 12.3898 3.85374 12.2642 3.77468Z" fill="#EE1C1F"/>
</g>
<defs>
<linearGradient id="paint0_linear_308_23" x1="7.5" y1="6.49994" x2="13.5" y2="14.4999" gradientUnits="userSpaceOnUse">
<stop offset="0.318372" stop-color="#FFCACB" stop-opacity="0"/>
<stop offset="1" stop-color="#FFCACB"/>
</linearGradient>
<clipPath id="clip0_308_23">
<rect width="15" height="15" fill="white"/>
</clipPath>
</defs>
</svg>
