<svg width="15" height="15" viewBox="0 0 15 15" fill="none" xmlns="http://www.w3.org/2000/svg">
<g clip-path="url(#clip0_304_241)">
<circle cx="10.5" cy="10.4999" r="4.5" fill="url(#paint0_linear_304_241)"/>
<path d="M6.12305 10.9863H6.82617V11.6601C6.82617 11.7572 6.93419 11.8652 7.03125 11.8652H7.79297C7.89003 11.8652 7.93945 11.7572 7.93945 11.6601V10.9863H8.73047C8.82753 10.9863 8.87695 10.8782 8.87695 10.7812V10.0781C8.87695 9.981 8.82753 9.93158 8.73047 9.93158H7.93945V9.14056C7.93945 9.0435 7.89003 8.99408 7.79297 8.99408H7.03125C6.93419 8.99408 6.82617 9.0435 6.82617 9.14056V9.93158H6.12305C6.02599 9.93158 5.91797 9.981 5.91797 10.0781V10.7812C5.91797 10.8782 6.02599 10.9863 6.12305 10.9863ZM6.26953 10.2831H7.03125C7.12831 10.2831 7.17773 10.1751 7.17773 10.0781V9.34564H7.58789V10.0781C7.58789 10.1751 7.69591 10.2831 7.79297 10.2831H8.52539V10.6347H7.79297C7.69591 10.6347 7.58789 10.6841 7.58789 10.7812V11.5136H7.17773V10.7812C7.17773 10.6841 7.12831 10.6347 7.03125 10.6347H6.26953V10.2831Z" fill="#EE1C1F"/>
<path d="M2.25586 5.47943C2.20924 5.47943 2.16453 5.49795 2.13156 5.53092C2.0986 5.56388 2.08008 5.60859 2.08008 5.65521V5.75599C2.08008 5.80261 2.0986 5.84732 2.13156 5.88029C2.16453 5.91326 2.20924 5.93178 2.25586 5.93178C2.30248 5.93178 2.34719 5.91326 2.38016 5.88029C2.41312 5.84732 2.43164 5.80261 2.43164 5.75599V5.65521C2.43164 5.60859 2.41312 5.56388 2.38016 5.53092C2.34719 5.49795 2.30248 5.47943 2.25586 5.47943Z" fill="#EE1C1F"/>
<path d="M2.25586 6.14166C2.20924 6.14166 2.16453 6.16018 2.13156 6.19315C2.0986 6.22611 2.08008 6.27082 2.08008 6.31744V8.19385C2.08008 8.24048 2.0986 8.28519 2.13156 8.31815C2.16453 8.35112 2.20924 8.36964 2.25586 8.36964C2.30248 8.36964 2.34719 8.35112 2.38016 8.31815C2.41312 8.28519 2.43164 8.24048 2.43164 8.19385V6.31744C2.43164 6.27082 2.41312 6.22611 2.38016 6.19315C2.34719 6.16018 2.30248 6.14166 2.25586 6.14166Z" fill="#EE1C1F"/>
<path d="M10.7754 3.92572C10.7754 3.8791 10.7569 3.83439 10.7239 3.80142C10.6909 3.76846 10.6462 3.74994 10.5996 3.74994H10.3682C10.3215 3.74994 10.2768 3.76846 10.2439 3.80142C10.2109 3.83439 10.1924 3.8791 10.1924 3.92572C10.1924 3.97234 10.2109 4.01705 10.2439 4.05002C10.2768 4.08298 10.3215 4.1015 10.3682 4.1015H10.5996C10.6462 4.1015 10.6909 4.08298 10.7239 4.05002C10.7569 4.01705 10.7754 3.97234 10.7754 3.92572Z" fill="#EE1C1F"/>
<path d="M9.38975 3.74994H8.46582C8.4192 3.74994 8.37449 3.76846 8.34152 3.80142C8.30856 3.83439 8.29004 3.8791 8.29004 3.92572C8.29004 3.97234 8.30856 4.01705 8.34152 4.05002C8.37449 4.08298 8.4192 4.1015 8.46582 4.1015H9.38975C9.43637 4.1015 9.48109 4.08298 9.51405 4.05002C9.54702 4.01705 9.56554 3.97234 9.56554 3.92572C9.56554 3.8791 9.54702 3.83439 9.51405 3.80142C9.48109 3.76846 9.43637 3.74994 9.38975 3.74994Z" fill="#EE1C1F"/>
<path d="M7.5677 3.74994H4.40039C4.35377 3.74994 4.30906 3.76846 4.27609 3.80142C4.24313 3.83439 4.22461 3.8791 4.22461 3.92572C4.22461 3.97234 4.24313 4.01705 4.27609 4.05002C4.30906 4.08298 4.35377 4.1015 4.40039 4.1015H7.5677C7.61432 4.1015 7.65904 4.08298 7.692 4.05002C7.72497 4.01705 7.74349 3.97234 7.74349 3.92572C7.74349 3.8791 7.72497 3.83439 7.692 3.80142C7.65904 3.76846 7.61432 3.74994 7.5677 3.74994Z" fill="#EE1C1F"/>
<path d="M10.776 2.90033C10.776 2.85371 10.7575 2.809 10.7245 2.77603C10.6915 2.74307 10.6468 2.72455 10.6002 2.72455H9.49316C9.44654 2.72455 9.40183 2.74307 9.36887 2.77603C9.3359 2.809 9.31738 2.85371 9.31738 2.90033C9.31738 2.94695 9.3359 2.99166 9.36887 3.02463C9.40183 3.05759 9.44654 3.07611 9.49316 3.07611H10.6002C10.6468 3.07611 10.6915 3.05759 10.7245 3.02463C10.7575 2.99166 10.776 2.94695 10.776 2.90033Z" fill="#EE1C1F"/>
<path d="M5.8397 3.07611H8.51465C8.56127 3.07611 8.60598 3.05759 8.63894 3.02463C8.67191 2.99166 8.69043 2.94695 8.69043 2.90033C8.69043 2.85371 8.67191 2.809 8.63894 2.77603C8.60598 2.74307 8.56127 2.72455 8.51465 2.72455H5.83984C5.79322 2.72455 5.74851 2.74307 5.71555 2.77603C5.68258 2.809 5.66406 2.85371 5.66406 2.90033C5.66406 2.94695 5.68258 2.99166 5.71555 3.02463C5.74851 3.05759 5.79322 3.07611 5.83984 3.07611H5.8397Z" fill="#EE1C1F"/>
<path d="M4.40039 3.07611H4.94112C4.98774 3.07611 5.03245 3.05759 5.06542 3.02463C5.09838 2.99166 5.1169 2.94695 5.1169 2.90033C5.1169 2.85371 5.09838 2.809 5.06542 2.77603C5.03245 2.74307 4.98774 2.72455 4.94112 2.72455H4.40039C4.35377 2.72455 4.30906 2.74307 4.27609 2.77603C4.24313 2.809 4.22461 2.85371 4.22461 2.90033C4.22461 2.94695 4.24313 2.99166 4.27609 3.02463C4.30906 3.05759 4.35377 3.07611 4.40039 3.07611Z" fill="#EE1C1F"/>
<path d="M12.5694 5.9765H12.3926V2.14479C12.3938 2.12234 12.3905 2.09988 12.383 2.0787C12.3754 2.05753 12.3638 2.03806 12.3486 2.02142L10.7344 0.374646C10.718 0.358027 10.6985 0.344831 10.677 0.335827C10.6555 0.326824 10.6324 0.322193 10.609 0.322205H2.77031C2.67322 0.322205 2.60742 0.400925 2.60742 0.497986V4.33588H2.44116C2.10483 4.33686 1.78255 4.4709 1.54472 4.70873C1.3069 4.94655 1.17286 5.26883 1.17188 5.60516V13.417C1.17188 13.7514 1.3047 14.072 1.54112 14.3084C1.77754 14.5449 2.0982 14.6777 2.43255 14.6777H12.5588C12.8955 14.6777 13.2183 14.5439 13.4564 14.3059C13.6944 14.0679 13.8281 13.745 13.8281 13.4084V7.23521C13.8281 6.90138 13.6955 6.58122 13.4595 6.34517C13.2234 6.10912 12.9032 5.9765 12.5694 5.9765ZM10.7812 0.927214L11.8143 1.96283H10.7812V0.927214ZM1.52344 9.34564H5.18792C5.06478 9.64409 5.00147 9.96381 5.00156 10.2867C5.00156 10.6987 5.1024 11.1035 5.27988 11.4257H1.52344V9.34564ZM13.4766 13.417C13.4759 13.6579 13.3799 13.8887 13.2095 14.0591C13.0392 14.2294 12.8083 14.3254 12.5675 14.3261H2.44116C2.19799 14.3254 1.96497 14.2285 1.79302 14.0565C1.62107 13.8846 1.52415 13.6516 1.52344 13.4084V11.7773H5.49952C5.73186 12.0887 6.03369 12.3416 6.38099 12.5158C6.72829 12.69 7.11146 12.7807 7.5 12.7807C7.88854 12.7807 8.27171 12.69 8.61901 12.5158C8.96631 12.3416 9.26814 12.0887 9.50048 11.7773H13.4766V13.417ZM5.35313 10.2921C5.3532 9.86754 5.47918 9.4525 5.71512 9.0995C5.95107 8.7465 6.28639 8.47139 6.67869 8.30895C7.07099 8.14652 7.50264 8.10406 7.91907 8.18694C8.3355 8.26982 8.718 8.47432 9.0182 8.77458C9.31841 9.07484 9.52284 9.45738 9.60565 9.87382C9.68846 10.2903 9.64592 10.7219 9.48342 11.1142C9.32091 11.5064 9.04574 11.8417 8.6927 12.0776C8.33966 12.3135 7.9246 12.4394 7.5 12.4394C6.93076 12.4387 6.38503 12.2123 5.98255 11.8097C5.58007 11.4071 5.35371 10.8614 5.35313 10.2921ZM13.4766 11.4257H9.7202C9.8976 11.1035 9.99852 10.6987 9.99852 10.2867C9.99859 9.9638 9.93525 9.64408 9.81208 9.34564H13.4766V11.4257ZM13.4766 8.99408H9.6346C9.412 8.62729 9.09864 8.32405 8.72475 8.1136C8.35086 7.90315 7.92905 7.79259 7.5 7.79259C7.07095 7.79259 6.64914 7.90315 6.27525 8.1136C5.90135 8.32405 5.588 8.62729 5.3654 8.99408H1.52344V5.60241C1.52415 5.35997 1.62077 5.12766 1.7922 4.95622C1.96363 4.78479 2.19594 4.68816 2.43838 4.68744H4.97713C5.21163 4.68811 5.43677 4.77952 5.60537 4.9425L6.68329 5.976C6.9173 6.20155 7.22955 6.32772 7.55455 6.32806H9.72656C9.77318 6.32806 9.81789 6.30954 9.85086 6.27658C9.88382 6.24361 9.90234 6.1989 9.90234 6.15228C9.90234 6.10566 9.88382 6.06095 9.85086 6.02799C9.81789 5.99502 9.77318 5.9765 9.72656 5.9765H7.55455C7.32029 5.97655 7.09511 5.88584 6.92631 5.72341L5.84839 4.6889C5.61448 4.46309 5.30225 4.33658 4.97713 4.33588H2.95898V0.673767H10.4297V2.1491C10.4297 2.24616 10.512 2.31439 10.609 2.31439H12.041V5.9765H10.8984C10.8518 5.9765 10.8071 5.99502 10.7741 6.02799C10.7412 6.06095 10.7227 6.10566 10.7227 6.15228C10.7227 6.1989 10.7412 6.24361 10.7741 6.27658C10.8071 6.30954 10.8518 6.32806 10.8984 6.32806H12.5588C12.802 6.32877 13.035 6.42569 13.207 6.59764C13.3789 6.7696 13.4759 7.00261 13.4766 7.24579V8.99408Z" fill="#EE1C1F"/>
</g>
<defs>
<linearGradient id="paint0_linear_304_241" x1="7.5" y1="6.49994" x2="13.5" y2="14.4999" gradientUnits="userSpaceOnUse">
<stop offset="0.318372" stop-color="#FFCACB" stop-opacity="0"/>
<stop offset="1" stop-color="#FFCACB"/>
</linearGradient>
<clipPath id="clip0_304_241">
<rect width="15" height="15" fill="white"/>
</clipPath>
</defs>
</svg>
