<svg width="15" height="15" viewBox="0 0 15 15" fill="none" xmlns="http://www.w3.org/2000/svg">
<g clip-path="url(#clip0_304_254)">
<circle cx="10.5" cy="10.4999" r="4.5" fill="url(#paint0_linear_304_254)"/>
<path d="M2.00517 12.4746C2.11248 12.4746 2.21863 12.4523 2.31692 12.4093C2.4152 12.3662 2.50347 12.3032 2.57617 12.2242C2.79285 12.2831 3.0167 12.3114 3.24121 12.3082C3.84273 12.3082 4.58511 12.1456 5.40238 11.8444C5.4729 12.1081 5.55068 12.3595 5.63555 12.5965C6.11602 13.9385 6.77784 14.6776 7.4991 14.6776C8.22036 14.6776 8.8822 13.9385 9.36267 12.5965C9.44731 12.3601 9.52489 12.1094 9.59526 11.8465C9.64363 11.8644 9.69209 11.8825 9.74013 11.8993C10.5147 12.1725 11.1933 12.3106 11.747 12.3106C11.9672 12.3133 12.1869 12.2864 12.3999 12.2304C12.478 12.3129 12.5732 12.3772 12.6788 12.419C12.7844 12.4607 12.8979 12.4788 13.0112 12.4721C13.1246 12.4654 13.2351 12.4339 13.335 12.3799C13.4349 12.326 13.5218 12.2508 13.5895 12.1597C13.6573 12.0686 13.7043 11.9638 13.7273 11.8526C13.7503 11.7414 13.7487 11.6265 13.7226 11.516C13.6964 11.4055 13.6465 11.302 13.5761 11.2129C13.5058 11.1238 13.4168 11.0511 13.3154 11C13.2835 10.1449 12.5897 8.98305 11.4566 7.79488C11.8313 7.40655 12.1764 6.99066 12.4889 6.55073C13.3058 5.38363 13.5268 4.41587 13.111 3.82565C12.9224 3.55797 12.6188 3.38638 12.209 3.31568C11.5569 3.20327 10.6543 3.35143 9.59441 3.74289C9.57976 3.68784 9.56511 3.63265 9.54961 3.57856C9.22372 2.43212 8.78286 1.61655 8.27016 1.20763C8.28549 1.09738 8.277 0.985135 8.24527 0.878451C8.21353 0.771768 8.15928 0.673132 8.08619 0.589195C8.01309 0.505258 7.92284 0.437973 7.82153 0.391879C7.72022 0.345785 7.6102 0.321953 7.4989 0.321991C7.38759 0.322029 7.27759 0.345936 7.17631 0.3921C7.07503 0.438263 6.98483 0.50561 6.91179 0.589596C6.83875 0.673583 6.78457 0.772257 6.75291 0.878962C6.72125 0.985667 6.71283 1.09792 6.72824 1.20815C6.43647 1.44197 6.16931 1.81061 5.93517 2.28596C5.92488 2.30652 5.91876 2.32891 5.91717 2.35185C5.91558 2.37479 5.91854 2.39781 5.9259 2.4196C5.93325 2.44138 5.94485 2.46149 5.96002 2.47877C5.97519 2.49605 5.99363 2.51015 6.01428 2.52027C6.03493 2.53038 6.05737 2.5363 6.08032 2.53769C6.10327 2.53909 6.12627 2.53592 6.14799 2.52837C6.16971 2.52083 6.18972 2.50906 6.20687 2.49374C6.22401 2.47842 6.23795 2.45986 6.24789 2.43912C6.43454 2.05911 6.64208 1.75709 6.86517 1.55263C6.93695 1.65393 7.03196 1.73656 7.14224 1.79358C7.25252 1.85061 7.37487 1.88037 7.49902 1.88038C7.62318 1.88038 7.74553 1.85063 7.85581 1.79362C7.9661 1.7366 8.06112 1.65398 8.13291 1.55269C8.5902 1.97163 8.98216 2.80009 9.26268 3.87077C8.65614 4.11941 8.06693 4.40839 7.49901 4.73576C6.93109 4.40839 6.34188 4.11944 5.73534 3.87083C5.76903 3.74228 5.80426 3.61727 5.84104 3.49583C5.84804 3.47297 5.85026 3.44892 5.84756 3.42517C5.84485 3.40142 5.83729 3.37848 5.82533 3.35778C5.81338 3.33708 5.79729 3.31907 5.77806 3.30486C5.75884 3.29065 5.7369 3.28055 5.7136 3.27519L5.71131 3.27467C5.66841 3.26478 5.62336 3.27151 5.58523 3.29351C5.54709 3.31551 5.51871 3.35114 5.5058 3.39323C5.47097 3.50702 5.43754 3.6238 5.40548 3.74356C4.34476 3.35148 3.44148 3.20301 2.78889 3.3156C2.37891 3.38629 2.07543 3.55788 1.88687 3.82557C1.47115 4.41578 1.69208 5.38354 2.50899 6.55064C2.82164 6.99093 3.16687 7.40713 3.54179 7.79576C2.41542 8.97727 1.72196 10.1337 1.68311 10.9865C1.52116 11.0602 1.3893 11.187 1.30944 11.346C1.22959 11.505 1.20656 11.6865 1.24418 11.8604C1.2818 12.0343 1.3778 12.1901 1.51623 12.3019C1.65466 12.4136 1.82717 12.4747 2.00508 12.4748L2.00517 12.4746ZM7.49901 1.52895C7.41436 1.52912 7.33157 1.50417 7.26111 1.45726C7.19065 1.41035 7.1357 1.34359 7.1032 1.26543C7.07071 1.18727 7.06213 1.10122 7.07856 1.01819C7.095 0.935151 7.13569 0.858857 7.19551 0.798964C7.25532 0.739071 7.33157 0.698272 7.41458 0.681732C7.49759 0.665192 7.58365 0.673654 7.66185 0.706049C7.74006 0.738443 7.80689 0.793311 7.85389 0.863709C7.90089 0.934106 7.92595 1.01687 7.9259 1.10151C7.92582 1.21476 7.88083 1.32335 7.80081 1.40348C7.72079 1.48361 7.61225 1.52873 7.49901 1.52895ZM5.34358 9.40864C5.56038 9.57679 5.78341 9.74195 6.01269 9.90414C6.38883 10.1702 6.76796 10.4181 7.1463 10.6466C6.66096 10.9171 6.16039 11.1594 5.6471 11.3722C5.50129 10.7254 5.39989 10.0693 5.34358 9.40864ZM9.03162 12.4781C8.61112 13.6526 8.05252 14.3261 7.49901 14.3261C6.9455 14.3261 6.38693 13.6526 5.96643 12.4781C5.88083 12.239 5.80266 11.9845 5.73206 11.7171C6.33917 11.4687 6.92899 11.18 7.49757 10.8529C8.06662 11.1812 8.6572 11.4707 9.26529 11.7194C9.19492 11.9861 9.11684 12.2397 9.03162 12.4781ZM9.35046 11.3744C8.8357 11.1621 8.33403 10.9194 7.84811 10.6476C8.22636 10.4199 8.6069 10.1717 8.98536 9.90414C9.21428 9.74223 9.43732 9.57706 9.65447 9.40864C9.59809 10.0701 9.49652 10.7269 9.35046 11.3744ZM13.3917 11.6955C13.3915 11.7799 13.3663 11.8623 13.3193 11.9324C13.2723 12.0025 13.2056 12.0571 13.1276 12.0892C13.0496 12.1214 12.9638 12.1297 12.881 12.1132C12.7983 12.0966 12.7223 12.0559 12.6627 11.9961C12.6031 11.9364 12.5625 11.8603 12.5461 11.7776C12.5297 11.6948 12.5382 11.609 12.5706 11.5311C12.6029 11.4531 12.6576 11.3865 12.7278 11.3396C12.798 11.2928 12.8805 11.2678 12.9648 11.2678C13.0781 11.268 13.1867 11.3132 13.2667 11.3934C13.3468 11.4735 13.3917 11.5822 13.3917 11.6955ZM11.8727 8.80226C12.5229 9.61765 12.9011 10.3577 12.9578 10.9165C12.8375 10.9177 12.7191 10.9467 12.6118 11.0013C12.5046 11.0559 12.4115 11.1346 12.3398 11.2312C12.2681 11.3278 12.2198 11.4398 12.1986 11.5582C12.1774 11.6766 12.184 11.7984 12.2177 11.9139C11.6622 12.0331 10.8358 11.9134 9.857 11.5682C9.7987 11.5477 9.73981 11.5259 9.68122 11.5039C9.86115 10.7161 9.97808 9.91526 10.0309 9.10891C10.4551 8.76177 10.8507 8.40552 11.2106 8.04692C11.4518 8.30008 11.674 8.55297 11.8727 8.80226ZM10.0582 6.96262C10.3795 7.23628 10.6834 7.51554 10.9647 7.79585C10.684 8.07575 10.3806 8.35448 10.0581 8.62861C10.0701 8.35396 10.0762 8.07599 10.0763 7.79468C10.0763 7.51403 10.0702 7.23668 10.0582 6.96262ZM12.1493 3.66206C12.4639 3.71632 12.6908 3.83942 12.8237 4.02801C13.143 4.48141 12.9161 5.32738 12.2009 6.34902C11.901 6.77137 11.57 7.17079 11.2107 7.54396C10.8533 7.18753 10.458 6.83058 10.0306 6.48048C9.97801 5.67356 9.86088 4.87215 9.68031 4.08394C10.6666 3.71412 11.5346 3.55598 12.1493 3.66206ZM9.34703 4.21486C9.49245 4.8621 9.59441 5.51834 9.65224 6.17919C9.43673 6.01208 9.21444 5.84739 8.98536 5.68513C8.60971 5.41943 8.22973 5.17108 7.84981 4.94192C8.33439 4.67078 8.8343 4.42801 9.34703 4.21483V4.21486ZM7.49904 5.14237C7.92557 5.39298 8.35606 5.67062 8.78224 5.97215C9.09422 6.19281 9.39748 6.422 9.68883 6.6567C9.71227 7.02842 9.72461 7.40887 9.72461 7.79465C9.72461 8.18043 9.71289 8.56059 9.69006 8.93271C9.39991 9.16596 9.0973 9.3941 8.78224 9.61715C8.35606 9.91861 7.9249 10.196 7.49737 10.4465C7.07043 10.1953 6.64126 9.91817 6.21569 9.61712C5.90143 9.39481 5.59883 9.16667 5.3079 8.93268C5.28505 8.56061 5.27336 8.18017 5.27336 7.79462C5.27336 7.40907 5.28572 7.02845 5.30916 6.65676C5.59835 6.4237 5.90122 6.19454 6.21569 5.97212C6.64199 5.6706 7.07248 5.39295 7.49904 5.14234V5.14237ZM5.65102 4.2148C6.1637 4.42798 6.66357 4.67075 7.14809 4.94189C6.76817 5.17105 6.38819 5.41943 6.01255 5.6851C5.7836 5.84705 5.56128 6.01179 5.34557 6.17931C5.40345 5.51839 5.5055 4.86209 5.65102 4.2148ZM2.7971 6.34899C2.08199 5.32735 1.85503 4.48138 2.17439 4.02798C2.30722 3.83939 2.5341 3.71629 2.84875 3.66203C3.46398 3.55586 4.33255 3.7143 5.31997 4.08461C5.13954 4.87257 5.02188 5.6736 4.96808 6.48016C4.54067 6.83025 4.14537 7.1875 3.78774 7.54431C3.42829 7.17103 3.09716 6.77149 2.7971 6.34899ZM4.93993 8.62856C4.61766 8.35463 4.3145 8.07613 4.03392 7.79652C4.31347 7.51779 4.61693 7.23836 4.94031 6.96262C4.92818 7.23605 4.92201 7.5134 4.92179 7.79465C4.92179 8.07557 4.92784 8.35354 4.93993 8.62856ZM3.78824 8.04754C4.14792 8.40593 4.54334 8.76197 4.96729 9.10891C5.02009 9.91464 5.13688 10.7149 5.31657 11.5021C4.2695 11.8945 3.35901 12.0503 2.7538 11.9085C2.78599 11.7955 2.79219 11.6767 2.77193 11.5609C2.75167 11.4452 2.70548 11.3355 2.63682 11.2401C2.56816 11.1448 2.47881 11.0662 2.37546 11.0103C2.27212 10.9544 2.15745 10.9225 2.04007 10.9172C2.11436 10.1611 2.76601 9.11981 3.78824 8.04754ZM2.00517 11.2679C2.08981 11.2677 2.17259 11.2927 2.24305 11.3396C2.3135 11.3865 2.36846 11.4532 2.40097 11.5313C2.43348 11.6095 2.44208 11.6955 2.42567 11.7786C2.40927 11.8616 2.3686 11.9379 2.30882 11.9978C2.24903 12.0577 2.17282 12.0985 2.08982 12.1151C2.00683 12.1317 1.92078 12.1233 1.84257 12.0909C1.76436 12.0586 1.6975 12.0037 1.65046 11.9334C1.60343 11.863 1.57832 11.7803 1.57832 11.6956C1.57832 11.5824 1.62326 11.4737 1.70329 11.3935C1.78331 11.3133 1.89188 11.2681 2.00517 11.2679Z" fill="#EE1C1F"/>
<path d="M7.49971 8.77734C7.69417 8.77768 7.88436 8.72032 8.04621 8.61253C8.20806 8.50474 8.3343 8.35136 8.40895 8.17179C8.4836 7.99223 8.50331 7.79456 8.46558 7.60379C8.42785 7.41303 8.33437 7.23774 8.19699 7.10012C8.0596 6.96249 7.88448 6.86872 7.69378 6.83066C7.50308 6.79259 7.30537 6.81196 7.12568 6.8863C6.94599 6.96064 6.79239 7.08661 6.68431 7.24828C6.57624 7.40994 6.51855 7.60003 6.51855 7.79449C6.51862 8.05485 6.62196 8.30454 6.8059 8.4888C6.98984 8.67305 7.23935 8.77682 7.49971 8.77734ZM7.49971 7.16309C7.62463 7.16275 7.74685 7.19949 7.85089 7.26865C7.95493 7.33782 8.03611 7.43629 8.08415 7.55161C8.13219 7.66694 8.14494 7.79392 8.12077 7.91649C8.0966 8.03906 8.03661 8.1517 7.94839 8.24016C7.86018 8.32862 7.74769 8.38891 7.62519 8.41341C7.50269 8.4379 7.37567 8.4255 7.26022 8.37777C7.14476 8.33004 7.04607 8.24913 6.97663 8.14528C6.90719 8.04143 6.87012 7.91931 6.87012 7.79438C6.87012 7.62725 6.9364 7.46695 7.05442 7.34863C7.17245 7.23031 7.33258 7.16363 7.49971 7.16321V7.16309Z" fill="#EE1C1F"/>
</g>
<defs>
<linearGradient id="paint0_linear_304_254" x1="7.5" y1="6.49994" x2="13.5" y2="14.4999" gradientUnits="userSpaceOnUse">
<stop offset="0.318372" stop-color="#FFCACB" stop-opacity="0"/>
<stop offset="1" stop-color="#FFCACB"/>
</linearGradient>
<clipPath id="clip0_304_254">
<rect width="15" height="15" fill="white"/>
</clipPath>
</defs>
</svg>
