<svg width="110" height="82" viewBox="0 0 110 82" fill="none" xmlns="http://www.w3.org/2000/svg">
<path d="M35.7285 38.6593C36.0691 32.3362 37.8795 26.1776 41.0177 20.6665C44.1558 15.1555 48.5364 10.4419 53.8156 6.89561C47.2627 4.42135 40.128 3.88929 33.2768 5.36392C26.4256 6.83855 20.152 10.2565 15.2167 15.2035C8.93905 21.5084 5.17621 29.8622 4.62642 38.7147L35.7285 38.6593ZM58.7485 9.16644C55.8414 10.8173 53.1701 12.8476 50.8057 15.2035C44.53 21.5182 40.7764 29.8833 40.2433 38.7423H77.1979C76.674 29.8674 72.9083 21.4876 66.6076 15.1758C64.2757 12.834 61.6313 10.8213 58.7485 9.19412V9.16644ZM35.7285 43.284H0.000131248V40.9855C-0.0274144 30.1169 4.28192 19.6806 11.9839 11.9634C17.9715 5.95623 25.7059 1.96839 34.0962 0.5623C42.4865 -0.843789 51.1093 0.40282 58.7485 4.12633C67.4775 -0.0964256 77.4371 -1.08325 86.8334 1.34361C96.2297 3.77048 104.445 9.45152 110 17.3635L106.293 20.1328C102.929 15.3699 98.4667 11.4767 93.2785 8.7787C88.7616 6.41195 83.7923 5.02072 78.6964 4.69619C73.6005 4.37166 68.4931 5.12117 63.7092 6.89561C69.3018 10.6805 73.8789 15.7661 77.0422 21.7099C80.2054 27.6537 81.8589 34.2756 81.8589 40.9993C81.8589 47.723 80.2054 54.3449 77.0422 60.2887C73.8789 66.2324 69.3018 71.3181 63.7092 75.103C71.2102 77.9351 79.4451 78.2126 87.1219 75.892C94.7987 73.5715 101.483 68.7842 106.126 62.2812L109.833 65.0505C106.066 70.2607 101.122 74.5197 95.3965 77.4846C89.7656 80.3791 83.5311 81.9242 77.1918 81.9963C70.8524 82.0685 64.584 80.6656 58.8878 77.9C53.1731 80.6795 46.8799 82.0828 40.5178 81.9962C34.1558 81.9096 27.9037 80.3356 22.2676 77.4015C16.4245 74.3703 11.405 69.981 7.6363 64.6074L11.3429 61.8381C14.7068 66.601 19.1695 70.4942 24.3578 73.1922C28.8904 75.5361 33.8706 76.9008 38.9716 77.1967C44.0725 77.4926 49.1787 76.713 53.955 74.9091C48.6721 71.36 44.2893 66.6421 41.151 61.1259C38.0127 55.6097 36.2042 49.4456 35.8678 43.1178L35.7285 43.284ZM77.3372 43.1178H40.3269C40.8166 51.987 44.5419 60.375 50.8057 66.7121C53.1472 69.051 55.7898 71.0717 58.6649 72.7214C61.5494 71.0857 64.1939 69.0637 66.524 66.7121C72.8003 60.4399 76.5647 52.1122 77.1143 43.284" fill="#FFCACB"/>
</svg>
