<svg width="62" height="62" viewBox="0 0 62 62" fill="none" xmlns="http://www.w3.org/2000/svg">
<circle cx="43.3998" cy="43.3998" r="18.6" fill="url(#paint0_linear_1755_351)"/>
<path d="M8.29003 51.5627C8.73359 51.5627 9.17234 51.4708 9.57857 51.2927C9.9848 51.1146 10.3497 50.8542 10.6501 50.5279C11.5458 50.7712 12.471 50.8881 13.399 50.8752C15.8853 50.8752 18.9538 50.2031 22.3318 48.9582C22.6233 50.048 22.9448 51.087 23.2956 52.0668C25.2815 57.6136 28.017 60.6684 30.9983 60.6684C33.9795 60.6684 36.7151 57.6136 38.701 52.0668C39.0509 51.0897 39.3715 50.0535 39.6624 48.9668C39.8623 49.0405 40.0626 49.1153 40.2612 49.1847C43.4626 50.3141 46.2674 50.885 48.5561 50.885C49.4666 50.8963 50.3744 50.7848 51.2551 50.5536C51.5779 50.8943 51.9713 51.1602 52.4077 51.3328C52.8442 51.5054 53.3131 51.5804 53.7816 51.5525C54.2502 51.5246 54.7069 51.3946 55.1198 51.1716C55.5328 50.9485 55.8919 50.6378 56.1721 50.2613C56.4522 49.8847 56.6466 49.4514 56.7416 48.9918C56.8366 48.5322 56.8298 48.0573 56.7219 47.6006C56.6139 47.1438 56.4073 46.7162 56.1166 46.3478C55.8259 45.9793 55.4581 45.6789 55.039 45.4676C54.907 41.9333 52.0395 37.1311 47.356 32.22C48.9048 30.6149 50.331 28.8959 51.6228 27.0775C54.9994 22.2535 55.9126 18.2534 54.1941 15.8138C53.4148 14.7074 52.1597 13.9982 50.4658 13.706C47.7705 13.2413 44.0397 13.8537 39.6589 15.4717C39.5983 15.2442 39.5378 15.0161 39.4737 14.7925C38.1267 10.0539 36.3045 6.68288 34.1853 4.99266C34.2487 4.53699 34.2136 4.07302 34.0824 3.63207C33.9512 3.19111 33.727 2.78341 33.4249 2.43647C33.1227 2.08954 32.7497 1.81143 32.331 1.6209C31.9122 1.43038 31.4575 1.33187 30.9974 1.33203C30.5374 1.33219 30.0827 1.431 29.6641 1.62181C29.2455 1.81262 28.8726 2.09099 28.5707 2.43813C28.2688 2.78528 28.0449 3.19313 27.914 3.63418C27.7831 4.07522 27.7484 4.53921 27.812 4.99484C26.6061 5.96129 25.5018 7.48501 24.534 9.44976C24.4915 9.53474 24.4662 9.6273 24.4596 9.72211C24.453 9.81691 24.4653 9.91209 24.4957 10.0021C24.5261 10.0922 24.574 10.1753 24.6367 10.2467C24.6994 10.3181 24.7757 10.3764 24.861 10.4182C24.9463 10.46 25.0391 10.4845 25.134 10.4903C25.2288 10.496 25.3239 10.4829 25.4137 10.4517C25.5035 10.4206 25.5862 10.3719 25.657 10.3086C25.7279 10.2453 25.7855 10.1685 25.8266 10.0828C26.5981 8.51213 27.4559 7.26377 28.378 6.41866C28.6747 6.83738 29.0674 7.17891 29.5232 7.41461C29.9791 7.65031 30.4848 7.77333 30.998 7.77335C31.5111 7.77338 32.0168 7.65041 32.4727 7.41475C32.9285 7.17908 33.3213 6.8376 33.618 6.4189C35.5081 8.15054 37.1283 11.5748 38.2877 16.0003C35.7807 17.028 33.3453 18.2225 30.9979 19.5756C28.6505 18.2225 26.2151 17.0281 23.708 16.0006C23.8473 15.4692 23.9929 14.9525 24.145 14.4506C24.1739 14.3561 24.1831 14.2567 24.1719 14.1585C24.1607 14.0603 24.1294 13.9655 24.08 13.88C24.0306 13.7944 23.9641 13.7199 23.8846 13.6612C23.8052 13.6025 23.7145 13.5607 23.6182 13.5386L23.6088 13.5364C23.4314 13.4956 23.2452 13.5234 23.0876 13.6143C22.93 13.7053 22.8127 13.8525 22.7593 14.0265C22.6153 14.4968 22.4771 14.9795 22.3447 15.4745C17.9603 13.8539 14.2268 13.2402 11.5294 13.7056C9.83483 13.9978 8.58042 14.707 7.80106 15.8135C6.08274 18.253 6.9959 22.2531 10.3725 27.0771C11.6648 28.897 13.0917 30.6173 14.6414 32.2236C9.98571 37.1072 7.11942 41.8869 6.95885 45.4121C6.28945 45.7165 5.74441 46.2409 5.41435 46.8981C5.08429 47.5552 4.9891 48.3055 5.14459 49.0243C5.30009 49.743 5.6969 50.3869 6.26907 50.8489C6.84124 51.3109 7.55429 51.5631 8.28967 51.5636L8.29003 51.5627ZM30.9979 6.32081C30.648 6.32151 30.3058 6.21838 30.0146 6.02448C29.7234 5.83058 29.4962 5.55464 29.3619 5.23158C29.2276 4.90851 29.1921 4.55286 29.26 4.20964C29.328 3.86643 29.4962 3.55108 29.7434 3.30352C29.9907 3.05596 30.3058 2.88733 30.6489 2.81896C30.992 2.75059 31.3477 2.78557 31.671 2.91947C31.9942 3.05336 32.2705 3.28016 32.4647 3.57113C32.659 3.86211 32.7626 4.20418 32.7624 4.55406C32.762 5.02213 32.5761 5.47098 32.2453 5.80218C31.9146 6.13337 31.466 6.31988 30.9979 6.32081ZM22.0888 38.8902C22.9849 39.5852 23.9068 40.2679 24.8544 40.9382C26.4092 42.038 27.9762 43.0625 29.54 44.0069C27.534 45.1252 25.4649 46.1267 23.3433 47.0063C22.7407 44.3327 22.3215 41.621 22.0888 38.8902ZM37.3327 51.5774C35.5946 56.4317 33.2857 59.2158 30.9979 59.2158C28.7101 59.2158 26.4013 56.4317 24.6632 51.5774C24.3094 50.5891 23.9863 49.5372 23.6945 48.432C26.2039 47.4052 28.6418 46.2118 30.992 44.8597C33.344 46.2168 35.7851 47.4134 38.2985 48.4413C38.0076 49.5437 37.6849 50.592 37.3327 51.5774ZM38.6505 47.0153C36.5229 46.138 34.4493 45.1348 32.4408 44.0111C34.0043 43.0699 35.5772 42.0443 37.1415 40.9382C38.0877 40.269 39.0096 39.5863 39.9071 38.8902C39.6741 41.6241 39.2543 44.3388 38.6505 47.0153ZM55.3543 48.3425C55.3536 48.6913 55.2495 49.0321 55.0552 49.3217C54.8609 49.6114 54.5851 49.837 54.2627 49.97C53.9402 50.103 53.5856 50.1374 53.2436 50.0689C52.9016 50.0004 52.5875 49.8321 52.3411 49.5852C52.0947 49.3383 51.9271 49.0239 51.8593 48.6818C51.7915 48.3396 51.8267 47.9851 51.9603 47.6629C52.0939 47.3407 52.3201 47.0654 52.6101 46.8717C52.9002 46.6779 53.2412 46.5746 53.59 46.5746C54.0583 46.5755 54.507 46.7622 54.8378 47.0937C55.1686 47.4251 55.3543 47.8743 55.3543 48.3425ZM49.076 36.3838C51.7632 39.7541 53.3264 42.8129 53.5609 45.1228C53.0636 45.1275 52.5741 45.2474 52.1309 45.473C51.6877 45.6987 51.3028 46.024 51.0065 46.4234C50.7101 46.8228 50.5103 47.2854 50.4228 47.775C50.3352 48.2646 50.3624 48.7678 50.502 49.2452C48.2059 49.7378 44.7899 49.243 40.7442 47.8163C40.5033 47.7315 40.2599 47.6414 40.0177 47.5507C40.7614 44.2945 41.2447 40.9842 41.4631 37.6513C43.2164 36.2164 44.8516 34.7439 46.3391 33.2618C47.3361 34.3081 48.2544 35.3534 49.076 36.3838ZM41.5759 28.78C42.9041 29.9111 44.16 31.0654 45.3229 32.224C44.1625 33.3809 42.9084 34.533 41.5754 35.6661C41.6252 34.5309 41.6502 33.3819 41.6505 32.2191C41.6505 31.0591 41.6256 29.9127 41.5759 28.78ZM50.2191 15.1377C51.5195 15.3619 52.4574 15.8708 53.0064 16.6502C54.3264 18.5243 53.3884 22.021 50.4325 26.2438C49.1927 27.9895 47.8246 29.6404 46.3395 31.1828C44.8622 29.7096 43.2282 28.2342 41.4617 26.7871C41.2444 23.4518 40.7603 20.1393 40.0139 16.8814C44.0908 15.3528 47.6783 14.6992 50.2191 15.1377ZM38.6364 17.4226C39.2374 20.0978 39.6589 22.8103 39.8979 25.5418C39.0072 24.8511 38.0883 24.1704 37.1415 23.4997C35.5888 22.4015 34.0182 21.3749 32.4479 20.4278C34.4508 19.307 36.5171 18.3036 38.6364 17.4224V17.4226ZM30.998 21.2563C32.761 22.2921 34.5404 23.4397 36.3019 24.686C37.5914 25.5981 38.8449 26.5454 40.0492 27.5155C40.146 29.0519 40.197 30.6245 40.197 32.219C40.197 33.8136 40.1486 35.3849 40.0542 36.923C38.8549 37.8871 37.6042 38.8301 36.3019 39.752C34.5404 40.9981 32.7582 42.1447 30.9911 43.1799C29.2264 42.1416 27.4525 40.9963 25.6935 39.7519C24.3946 38.833 23.1438 37.89 21.9413 36.9229C21.8468 35.385 21.7985 33.8125 21.7985 32.2189C21.7985 30.6253 21.8496 29.052 21.9465 27.5157C23.1418 26.5524 24.3937 25.6052 25.6935 24.6859C27.4555 23.4396 29.2349 22.292 30.998 21.2562V21.2563ZM23.3595 17.4223C25.4786 18.3034 27.5447 19.3069 29.5474 20.4276C27.9771 21.3748 26.4065 22.4015 24.8538 23.4995C23.9075 24.1689 22.9886 24.8499 22.097 25.5423C22.3363 22.8105 22.758 20.0978 23.3595 17.4223ZM11.5633 26.2436C8.60754 22.0209 7.66943 18.5242 8.98947 16.6501C9.53851 15.8706 10.4763 15.3618 11.7768 15.1375C14.3198 14.6987 17.9098 15.3536 21.9912 16.8842C21.2454 20.1411 20.7591 23.452 20.5367 26.7858C18.7701 28.2329 17.1362 29.7095 15.658 31.1843C14.1723 29.6414 12.8036 27.9899 11.5633 26.2436ZM20.4204 35.6658C19.0883 34.5336 17.8352 33.3825 16.6755 32.2268C17.831 31.0747 19.0853 29.9197 20.4219 28.78C20.3718 29.9102 20.3463 31.0565 20.3454 32.219C20.3454 33.3801 20.3704 34.5291 20.4204 35.6658ZM15.66 33.2643C17.1467 34.7456 18.7811 36.2173 20.5335 37.6513C20.7517 40.9816 21.2344 44.2894 21.9771 47.5432C17.6492 49.1651 13.8859 49.8091 11.3843 49.223C11.5174 48.7559 11.543 48.2647 11.4593 47.7863C11.3756 47.3078 11.1847 46.8546 10.9009 46.4604C10.6171 46.0662 10.2477 45.7414 9.82057 45.5103C9.3934 45.2791 8.91946 45.1476 8.43426 45.1257C8.74135 42.0005 11.4348 37.6963 15.66 33.2643ZM8.29003 46.5752C8.63986 46.5744 8.98203 46.6775 9.27325 46.8714C9.56447 47.0652 9.79164 47.341 9.92601 47.664C10.0604 47.987 10.0959 48.3426 10.0281 48.6858C9.9603 49.029 9.7922 49.3444 9.54509 49.592C9.29798 49.8396 8.98297 50.0084 8.63992 50.0769C8.29687 50.1454 7.9412 50.1106 7.61793 49.9769C7.29467 49.8432 7.01834 49.6166 6.82391 49.3257C6.62948 49.0349 6.5257 48.693 6.5257 48.3431C6.5257 47.8749 6.71146 47.4257 7.04224 47.0943C7.37301 46.7628 7.82177 46.5761 8.29003 46.5752Z" fill="#EE1C1F"/>
<path d="M30.9988 36.2792C31.8026 36.2806 32.5887 36.0435 33.2577 35.598C33.9267 35.1524 34.4485 34.5184 34.757 33.7762C35.0656 33.034 35.147 32.217 34.9911 31.4285C34.8351 30.64 34.4487 29.9155 33.8809 29.3466C33.313 28.7778 32.5892 28.3902 31.8009 28.2329C31.0127 28.0756 30.1955 28.1556 29.4528 28.4629C28.7101 28.7701 28.0752 29.2908 27.6285 29.959C27.1818 30.6273 26.9434 31.413 26.9434 32.2167C26.9436 33.2929 27.3708 34.3249 28.1311 35.0865C28.8913 35.8481 29.9227 36.277 30.9988 36.2792ZM30.9988 29.6069C31.5152 29.6055 32.0203 29.7574 32.4504 30.0433C32.8804 30.3291 33.2159 30.7362 33.4145 31.2128C33.6131 31.6895 33.6657 32.2144 33.5659 32.721C33.466 33.2276 33.218 33.6932 32.8534 34.0588C32.4887 34.4244 32.0238 34.6737 31.5175 34.7749C31.0111 34.8762 30.4861 34.8249 30.0089 34.6276C29.5317 34.4303 29.1238 34.0959 28.8367 33.6666C28.5497 33.2374 28.3965 32.7326 28.3965 32.2163C28.3965 31.5255 28.6704 30.8629 29.1583 30.3738C29.6461 29.8848 30.308 29.6091 30.9988 29.6074V29.6069Z" fill="#EE1C1F"/>
<defs>
<linearGradient id="paint0_linear_1755_351" x1="30.9998" y1="26.8665" x2="55.7998" y2="59.9331" gradientUnits="userSpaceOnUse">
<stop offset="0.318372" stop-color="#FFCACB" stop-opacity="0"/>
<stop offset="1" stop-color="#FFCACB"/>
</linearGradient>
</defs>
</svg>
