<svg width="85" height="110" viewBox="0 0 85 110" fill="none" xmlns="http://www.w3.org/2000/svg">
<path fill-rule="evenodd" clip-rule="evenodd" d="M22.186 73.604H61.082V34.459H22.186V73.604Z" fill="white"/>
<path fill-rule="evenodd" clip-rule="evenodd" d="M13.7569 92.258C13.7569 93.864 13.1039 95.157 11.8109 96.129C10.6259 97.021 9.20888 97.469 7.54288 97.469C6.83488 97.469 5.77388 97.274 4.37488 96.889C3.75788 96.721 3.39788 96.636 3.29988 96.636C3.04588 96.636 2.84088 96.754 2.68588 96.975H2.17188L1.52588 92.346H2.10888C2.41888 93.62 3.02788 94.642 3.93288 95.421C4.86988 96.233 5.97888 96.64 7.26688 96.64C8.41388 96.64 9.38788 96.337 10.1779 95.729C11.0409 95.05 11.4759 94.166 11.4759 93.049C11.4759 92.019 10.8929 91.001 9.71288 89.991C9.28788 89.632 8.26988 88.932 6.66588 87.911C5.08388 86.916 3.98288 86.116 3.36088 85.496C2.23188 84.395 1.67588 83.215 1.67588 81.965C1.67588 80.222 2.56488 78.944 4.34088 78.122C5.16588 77.731 6.08888 77.541 7.11188 77.541C8.11288 77.541 9.14288 77.718 10.1929 78.078C10.6639 78.235 11.0169 78.313 11.2499 78.313C11.4659 78.313 11.6569 78.212 11.8109 78.002H12.2949L12.8179 81.88H12.2949C11.8869 80.813 11.2499 79.963 10.3859 79.311C9.48688 78.626 8.48688 78.284 7.37988 78.284C6.42788 78.284 5.64488 78.516 5.01688 78.985C4.31988 79.499 3.97688 80.22 3.97688 81.143C3.97688 82.156 4.54688 83.144 5.70688 84.107C6.06088 84.403 7.06488 85.074 8.72088 86.105C10.3039 87.096 11.4249 87.925 12.0909 88.59C13.2049 89.723 13.7569 90.947 13.7569 92.258ZM45.4459 78.58C44.2839 78.58 43.4969 78.896 43.0949 79.534C42.8399 79.915 42.5569 80.519 42.2409 81.355L36.1029 97.47H34.6399L30.6309 88.039L26.7899 97.47H25.2929L18.9549 81.232C18.5449 80.189 18.1209 79.499 17.6809 79.144C17.1929 78.772 16.4189 78.58 15.3439 78.58H15.1689V78.003H23.0699V78.58H22.5599C21.4449 78.58 20.8929 78.937 20.8929 79.656C20.8929 79.893 20.9569 80.172 21.0869 80.506L26.6439 94.473L29.9389 86.33L27.4599 80.326C27.1609 79.6 26.7579 79.109 26.2439 78.868C25.8379 78.676 25.1939 78.58 24.3189 78.58V78.003H36.8329V78.58C36.0309 78.58 35.4269 78.676 35.0149 78.868C34.4789 79.106 34.0769 79.549 33.8089 80.205L31.8579 84.961L35.8629 94.473L41.2619 80.326C41.4279 79.89 41.4819 79.549 41.4189 79.314C41.3009 78.868 40.5259 78.626 39.1269 78.58V78.003H45.4459V78.58ZM32.5299 79.893C32.6349 79.637 32.6859 79.417 32.6859 79.239C32.6859 78.801 32.3809 78.58 31.7709 78.58H30.4879C29.8379 78.58 29.5079 78.782 29.5079 79.176C29.5079 79.325 29.5539 79.511 29.6399 79.718L31.1599 83.247L32.5299 79.893ZM54.4489 96.98H47.0279V96.402C47.9749 96.361 48.6079 96.152 48.9049 95.776C49.1839 95.431 49.3229 94.764 49.3229 93.778V80.791C49.3229 79.963 49.1409 79.389 48.7879 79.078C48.4669 78.798 47.8809 78.632 47.0279 78.58V78.002H54.4489V78.58C53.1669 78.58 52.3849 78.893 52.1099 79.511C51.9399 79.865 51.8539 80.384 51.8539 81.056V93.986C51.8539 95.188 52.1819 95.922 52.8519 96.178C53.2329 96.326 53.7619 96.402 54.4489 96.402V96.98ZM69.3849 92.258C69.3849 93.864 68.7349 95.157 67.4319 96.129C66.2549 97.021 64.8349 97.469 63.1709 97.469C62.4599 97.469 61.4009 97.274 60.0069 96.889C59.3839 96.721 59.0299 96.636 58.9319 96.636C58.6739 96.636 58.4719 96.754 58.3169 96.975H57.7969L57.1529 92.346H57.7409C58.0469 93.62 58.6589 94.642 59.5569 95.421C60.5019 96.233 61.6099 96.64 62.8949 96.64C64.0419 96.64 65.0139 96.337 65.8029 95.729C66.6739 95.05 67.1039 94.166 67.1039 93.049C67.1039 92.019 66.5179 91.001 65.3399 89.991C64.9149 89.632 63.9049 88.932 62.2919 87.911C60.7229 86.916 59.6159 86.116 58.9869 85.496C57.8619 84.395 57.3069 83.215 57.3069 81.965C57.3069 80.222 58.1959 78.944 59.9689 78.122C60.7929 77.731 61.7169 77.541 62.7429 77.541C63.7449 77.541 64.7699 77.718 65.8209 78.078C66.2889 78.235 66.6469 78.313 66.8779 78.313C67.0999 78.313 67.2879 78.212 67.4319 78.002H67.9229L68.4499 81.88H67.9229C67.5159 80.813 66.8779 79.963 66.0159 79.311C65.1139 78.626 64.1159 78.284 63.0099 78.284C62.0589 78.284 61.2739 78.516 60.6449 78.985C59.9479 79.499 59.6019 80.22 59.6019 81.143C59.6019 82.156 60.1749 83.144 61.3329 84.107C61.6879 84.403 62.6919 85.074 64.3559 86.105C65.9379 87.096 67.0549 87.925 67.7199 88.59C68.8299 89.723 69.3849 90.947 69.3849 92.258ZM84.3419 92.258C84.3419 93.864 83.6959 95.157 82.3899 96.129C81.2159 97.021 79.7919 97.469 78.1269 97.469C77.4189 97.469 76.3619 97.274 74.9599 96.889C74.3419 96.721 73.9889 96.636 73.8859 96.636C73.6269 96.636 73.4259 96.754 73.2779 96.975H72.7519L72.1139 92.346H72.6999C73.0019 93.62 73.6139 94.642 74.5159 95.421C75.4539 96.233 76.5689 96.64 77.8519 96.64C78.9969 96.64 79.9709 96.337 80.7609 95.729C81.6289 95.05 82.0619 94.166 82.0619 93.049C82.0619 92.019 81.4739 91.001 80.3029 89.991C79.8729 89.632 78.8599 88.932 77.2479 87.911C75.6769 86.916 74.5709 86.116 73.9439 85.496C72.8189 84.395 72.2619 83.215 72.2619 81.965C72.2619 80.222 73.1529 78.944 74.9269 78.122C75.7509 77.731 76.6749 77.541 77.6979 77.541C78.6999 77.541 79.7249 77.718 80.7769 78.078C81.2469 78.235 81.5989 78.313 81.8349 78.313C82.0539 78.313 82.2449 78.212 82.3899 78.002H82.8789L83.4019 81.88H82.8789C82.4699 80.813 81.8349 79.963 80.9739 79.311C80.0729 78.626 79.0729 78.284 77.9649 78.284C77.0149 78.284 76.2269 78.516 75.6019 78.985C74.9049 79.499 74.5559 80.22 74.5559 81.143C74.5559 82.156 75.1329 83.144 76.2939 84.107C76.6449 84.403 77.6529 85.074 79.3079 86.105C80.8879 87.096 82.0129 87.925 82.6749 88.59C83.7899 89.723 84.3419 90.947 84.3419 92.258Z" fill="#474B56"/>
<path fill-rule="evenodd" clip-rule="evenodd" d="M41.8 0.402832L0 73.9098L35.108 73.7608V59.9698H22.505V47.3638H35.108V34.7938H47.716V47.3638H60.318V59.9698H47.716V73.6768L84.155 73.4388L41.8 0.402832Z" fill="#D9222A"/>
<mask id="mask0_1755_204" style="mask-type:alpha" maskUnits="userSpaceOnUse" x="0" y="98" width="50" height="11">
<path d="M0.866211 108.94H49.3772V98.7388H0.866211V108.94Z" fill="white"/>
</mask>
<g mask="url(#mask0_1755_204)">
<path fill-rule="evenodd" clip-rule="evenodd" d="M11.2132 104.832C10.4842 104.882 10.1202 105.213 10.1202 105.826V108.009C8.84821 108.671 7.44821 109 5.90921 109C4.93021 109 4.05521 108.783 3.28121 108.357C2.47852 107.911 1.83314 107.227 1.43321 106.401C1.06194 105.674 0.867657 104.87 0.866211 104.054C0.866211 102.703 1.30721 101.507 2.20621 100.473C3.18821 99.3178 4.57221 98.7388 6.34521 98.7388C7.13921 98.7388 8.04221 98.8808 9.04621 99.1658C9.29721 99.2378 9.43921 99.2748 9.47321 99.2748C9.60234 99.2823 9.72995 99.2437 9.83321 99.1658H10.0582V101.707H9.74021C9.37121 99.9898 8.29521 99.1318 6.51821 99.1318C5.20721 99.1318 4.16921 99.6158 3.40421 100.577C2.69521 101.476 2.34421 102.603 2.34421 103.956C2.34421 105.436 2.78321 106.6 3.67421 107.45C4.47921 108.225 5.39321 108.608 6.41321 108.608C7.21421 108.608 8.00621 108.41 8.81421 108.009V106.03C8.81421 105.57 8.71921 105.255 8.53121 105.086C8.34721 104.916 8.01921 104.832 7.55821 104.832H6.97121V104.548H11.2132V104.832ZM24.1032 108.925C23.8762 108.935 23.6532 108.939 23.4422 108.939C22.5062 108.939 21.7642 108.813 21.2022 108.564C20.6722 108.332 20.0282 107.827 19.2442 107.051L18.2112 106.015C17.5212 105.333 16.9812 104.864 16.5872 104.611C16.2345 104.629 15.8814 104.64 15.5282 104.644C15.3202 104.644 15.0532 104.635 14.7292 104.611V107.27C14.7292 107.856 14.8962 108.216 15.2462 108.348C15.4222 108.414 15.6612 108.451 15.9742 108.451H16.3332V108.748H11.8962V108.451H12.1672C12.6552 108.451 12.9872 108.357 13.1572 108.17C13.3352 107.982 13.4192 107.642 13.4192 107.145V100.529C13.4192 100.063 13.3412 99.7338 13.1762 99.5478C13.0172 99.3648 12.7022 99.2758 12.2392 99.2758H11.8962V98.9758C12.0982 98.9758 12.5642 98.9528 13.2702 98.9108C13.4492 98.9058 13.6492 98.8908 13.8752 98.8808C14.5355 98.8539 15.1963 98.8398 15.8572 98.8388C17.2522 98.8388 18.3092 99.0988 19.0352 99.6228C19.7192 100.117 20.0662 100.784 20.0662 101.627C20.0662 102.253 19.8672 102.798 19.4642 103.256C19.0952 103.69 18.5962 103.994 17.9742 104.179C18.4502 104.553 19.0502 105.091 19.7642 105.81L21.0142 107.051C21.6642 107.706 22.3162 108.155 22.9702 108.403C23.3352 108.533 23.7165 108.613 24.1032 108.64V108.925ZM18.5862 101.729C18.5862 100.617 18.1782 99.8658 17.3442 99.4658C16.8982 99.2468 16.2842 99.1338 15.5052 99.1338C15.1712 99.1338 14.9082 99.1438 14.7292 99.1658V104.316C14.9052 104.34 15.2292 104.35 15.6992 104.35C17.6272 104.35 18.5862 103.475 18.5862 101.729ZM36.2862 103.59C36.2862 105.151 35.7442 106.443 34.6622 107.464C33.5692 108.489 32.2512 109 30.6972 109C29.7072 109 28.7852 108.807 27.9442 108.424C27.0442 108.008 26.3282 107.415 25.7992 106.638C25.2872 105.893 25.0292 105.04 25.0292 104.083C25.0292 103.072 25.2732 102.157 25.7492 101.339C26.2405 100.513 26.9606 99.8477 27.8222 99.4228C28.6972 98.9648 29.6792 98.7388 30.7762 98.7388C32.2902 98.7388 33.5912 99.1978 34.6742 100.128C35.7442 101.054 36.2862 102.207 36.2862 103.59ZM34.8122 104.111C34.8122 102.656 34.3942 101.463 33.5652 100.528C32.7382 99.6018 31.6692 99.1338 30.3672 99.1338C29.1152 99.1338 28.1382 99.6278 27.4282 100.617C26.8102 101.484 26.4942 102.477 26.4942 103.59C26.4942 104.498 26.6852 105.328 27.0532 106.084C27.4472 106.89 28.0072 107.518 28.7412 107.965C29.4271 108.393 30.2209 108.616 31.0292 108.608C32.6362 108.608 33.7522 107.838 34.3862 106.298C34.6691 105.603 34.8138 104.861 34.8122 104.111ZM49.3772 99.2748C48.8602 99.2868 48.4982 99.4008 48.2782 99.6218C48.0592 99.8388 47.9492 100.204 47.9492 100.716V104.956C47.9492 105.83 47.7252 106.591 47.2922 107.235C46.8532 107.88 46.2312 108.353 45.4382 108.653C44.8352 108.884 44.1242 108.999 43.3012 108.999C41.8512 108.999 40.7262 108.619 39.9182 107.856C39.1452 107.143 38.7592 106.203 38.7592 105.044V100.455C38.7592 99.8438 38.5992 99.4788 38.2692 99.3778C38.0882 99.3178 37.8062 99.2868 37.4072 99.2748V98.9758H41.4462V99.2748H41.3042C40.8552 99.2748 40.5372 99.3548 40.3502 99.5188C40.1582 99.6808 40.0622 99.9818 40.0622 100.424V104.79C40.0622 105.891 40.3862 106.734 41.0342 107.329C41.6602 107.896 42.5372 108.179 43.6502 108.179C46.0352 108.179 47.2302 107.044 47.2302 104.774V101.117C47.2302 100.175 47.0532 99.6218 46.7012 99.4528C46.4972 99.3578 46.1582 99.2988 45.6892 99.2748V98.9758H49.3772V99.2748Z" fill="#1B1A19"/>
</g>
<path fill-rule="evenodd" clip-rule="evenodd" d="M57.8449 101.617C57.8449 102.628 57.4439 103.401 56.6509 103.929C55.9629 104.385 55.0909 104.612 54.0469 104.612C53.5749 104.612 53.1259 104.572 52.7079 104.491V107.238C52.7079 107.697 52.8069 108.014 52.9929 108.188C53.1749 108.362 53.5009 108.451 53.9599 108.451H54.4849V108.749H50.1359V108.451H50.3479C50.7429 108.451 51.0159 108.397 51.1549 108.289C51.3249 108.164 51.4049 107.912 51.4049 107.536V100.11C51.4049 99.5519 51.1609 99.2759 50.6669 99.2759H49.8809V98.9759C50.7429 98.9319 51.3979 98.9049 51.8639 98.8809C52.5113 98.8561 53.159 98.8418 53.8069 98.8379C55.3099 98.8379 56.3839 99.1379 57.0399 99.7449C57.5749 100.238 57.8449 100.864 57.8449 101.617ZM56.3739 101.568C56.3739 99.9479 55.5149 99.1339 53.7939 99.1339C53.3249 99.1339 52.9629 99.1559 52.7079 99.1979V104.194C53.0669 104.275 53.3459 104.316 53.5549 104.316C54.7159 104.316 55.5419 103.873 56.0299 102.981C56.2629 102.563 56.3739 102.092 56.3739 101.568Z" fill="#1B1A19"/>
<mask id="mask1_1755_204" style="mask-type:alpha" maskUnits="userSpaceOnUse" x="62" y="98" width="23" height="11">
<path d="M62.3081 108.94H84.1241V98.7388H62.3081V108.94Z" fill="white"/>
</mask>
<g mask="url(#mask1_1755_204)">
<path fill-rule="evenodd" clip-rule="evenodd" d="M72.8031 108.749H68.4881V108.452H68.8911C69.2661 108.452 69.5251 108.431 69.6631 108.403C69.9651 108.332 70.1221 108.17 70.1221 107.917C70.1221 107.786 70.0591 107.569 69.9501 107.269L68.8911 104.416H65.6411L64.7321 106.877C64.5251 107.451 64.4201 107.778 64.4201 107.864C64.4201 108.257 64.8441 108.452 65.6901 108.452H65.9381V108.749H62.3081V108.452C62.9481 108.428 63.3591 108.26 63.5531 107.935C63.6781 107.726 63.8251 107.377 64.0021 106.89L66.8691 99.0828L66.7291 98.7398H68.0881L71.3771 107.46C71.5671 107.972 71.8281 108.277 72.1461 108.374C72.3081 108.424 72.5271 108.452 72.8031 108.452V108.749ZM68.6181 103.724L67.2391 100.055L65.9061 103.724H68.6181ZM84.1241 104.832C83.3991 104.882 83.0321 105.213 83.0321 105.826V108.009C81.7641 108.671 80.3601 109 78.8211 109C77.8431 109 76.9721 108.783 76.1961 108.357C75.3925 107.912 74.7468 107.228 74.3481 106.401C73.9773 105.674 73.7849 104.87 73.7871 104.054C73.7871 102.703 74.2271 101.507 75.1181 100.473C76.0981 99.3178 77.4851 98.7388 79.2571 98.7388C80.0561 98.7388 80.9601 98.8808 81.9601 99.1658C82.2091 99.2378 82.3541 99.2748 82.3891 99.2748C82.5177 99.2826 82.6447 99.2439 82.7471 99.1658H82.9691V101.707H82.6571C82.2871 99.9898 81.2151 99.1318 79.4341 99.1318C78.1201 99.1318 77.0851 99.6158 76.3171 100.577C75.6121 101.476 75.2511 102.603 75.2511 103.956C75.2511 105.436 75.6981 106.6 76.5881 107.45C77.3931 108.225 78.3031 108.608 79.3271 108.608C80.1261 108.608 80.9231 108.41 81.7291 108.009V106.03C81.7291 105.57 81.6381 105.255 81.4441 105.086C81.2571 104.916 80.9321 104.832 80.4671 104.832H79.8841V104.548H84.1241V104.832Z" fill="#1B1A19"/>
</g>
</svg>
