<svg width="307" height="92" viewBox="0 0 307 92" fill="none" xmlns="http://www.w3.org/2000/svg">
<path d="M39.1072 43.1525C39.4801 36.1823 41.4617 29.3934 44.8966 23.3183C48.3315 17.2432 53.1263 12.0473 58.9048 8.13797C51.7321 5.41048 43.9228 4.82397 36.4237 6.44952C28.9245 8.07507 22.0577 11.8429 16.6557 17.2961C9.78438 24.2463 5.6657 33.4551 5.06393 43.2136L39.1072 43.1525ZM64.3041 10.6412C61.1222 12.461 58.1982 14.6992 55.6103 17.2961C48.7411 24.2571 44.6325 33.4783 44.049 43.2441H84.4983C83.9248 33.4608 79.803 24.2233 72.9065 17.2656C70.354 14.6841 67.4595 12.4654 64.3041 10.6717V10.6412ZM39.1072 48.2505H0.000143659V45.7168C-0.0300069 33.7358 4.68685 22.2315 13.1172 13.7244C19.671 7.10245 28.1368 2.70647 37.3206 1.15647C46.5043 -0.393526 55.9425 0.980668 64.3041 5.08526C73.8586 0.430327 84.7601 -0.657499 95.045 2.01775C105.33 4.69299 114.322 10.9555 120.402 19.6772L116.345 22.7299C112.663 17.4796 107.778 13.1879 102.099 10.2138C97.1555 7.60481 91.7163 6.0712 86.1385 5.71345C80.5607 5.3557 74.9703 6.18193 69.734 8.13797C75.8555 12.3103 80.8654 17.9164 84.3278 24.4685C87.7902 31.0206 89.6001 38.3202 89.6001 45.7321C89.6001 53.1439 87.7902 60.4435 84.3278 66.9956C80.8654 73.5477 75.8555 79.1538 69.734 83.3261C77.9443 86.448 86.9579 86.7539 95.3607 84.1959C103.764 81.6378 111.08 76.3606 116.162 69.1921L120.219 72.2448C116.097 77.9883 110.684 82.6831 104.418 85.9515C98.2544 89.1422 91.4304 90.8455 84.4915 90.925C77.5527 91.0045 70.6915 89.4581 64.4567 86.4093C58.2015 89.4734 51.3132 91.0203 44.3495 90.9248C37.3858 90.8294 30.5424 89.0942 24.3734 85.8599C17.9777 82.5184 12.4835 77.6799 8.35844 71.7563L12.4156 68.7036C16.0976 73.9539 20.9823 78.2456 26.6613 81.2198C31.6225 83.8035 37.0737 85.3079 42.657 85.6341C48.2403 85.9603 53.8294 85.1009 59.0573 83.1124C53.2748 79.2001 48.4776 73.9993 45.0425 67.9185C41.6074 61.8378 39.628 55.0428 39.2597 48.0674L39.1072 48.2505ZM84.6508 48.0674H44.1405C44.6765 57.8443 48.7541 67.0908 55.6103 74.0764C58.1731 76.6547 61.0657 78.8822 64.2126 80.7008C67.3699 78.8977 70.2645 76.6687 72.815 74.0764C79.6848 67.1623 83.8052 57.9823 84.4068 48.2505" fill="#C9CFD6"/>
<path d="M289.185 85.3412C289.91 86.4859 290.878 87.4555 292.022 88.1802C293.079 88.8909 294.318 89.283 295.591 89.3097C296.979 89.3047 298.319 88.8071 299.374 87.9055C299.899 87.4854 300.32 86.9504 300.605 86.3418C300.891 85.7332 301.033 85.0671 301.021 84.3948C301.104 83.7355 301.005 83.0662 300.736 82.4585C300.468 81.8509 300.039 81.3278 299.496 80.9453C297.95 80.1141 296.312 79.4685 294.615 79.0221C293.036 78.6059 291.547 77.9022 290.223 76.9462C289.515 76.3181 288.948 75.5473 288.559 74.6845C288.17 73.8217 287.968 72.8864 287.965 71.9398C287.907 70.7949 288.107 69.6515 288.55 68.5945C288.994 67.5375 289.67 66.5941 290.528 65.8344C292.338 64.352 294.626 63.5814 296.964 63.667C298.999 63.6674 301.009 64.1155 302.852 64.9796H303.035H303.218C302.703 66.2548 302.265 67.5596 301.906 68.8871H301.387C301.003 67.9089 300.372 67.0467 299.557 66.3839C298.765 65.7068 297.761 65.3287 296.72 65.3154C295.412 65.2696 294.131 65.7039 293.12 66.5365C292.642 66.9437 292.264 67.4557 292.015 68.0327C291.767 68.6098 291.654 69.2364 291.687 69.864C291.631 70.4899 291.724 71.1201 291.957 71.7035C292.19 72.2869 292.557 72.8071 293.029 73.222C294.217 74.0484 295.553 74.6391 296.964 74.962C298.711 75.3627 300.401 75.9779 301.997 76.7936C302.851 77.4207 303.546 78.2384 304.028 79.1818C304.51 80.1251 304.765 81.168 304.773 82.2274C304.746 83.7657 304.314 85.2695 303.522 86.5878C302.729 87.906 301.604 88.9922 300.259 89.7371C298.53 90.7321 296.544 91.1892 294.554 91.0498C292.131 91.106 289.739 90.5047 287.63 89.3097C288.331 86.9896 288.697 85.616 288.758 85.1886L289.185 85.3412ZM278.6 69.7113H278.295C277.877 69.0389 277.386 68.4145 276.831 67.8492C276.134 67.1228 275.292 66.5508 274.36 66.1702C273.406 65.7188 272.365 65.4793 271.31 65.4681C269.923 65.4073 268.543 65.6904 267.293 66.2922C266.042 66.8941 264.959 67.796 264.141 68.9176C262.41 71.2998 261.51 74.1851 261.579 77.1294C261.449 80.1388 262.377 83.0983 264.202 85.4938C265.088 86.6542 266.239 87.5858 267.557 88.2107C268.891 88.85 270.35 89.1837 271.828 89.1876C274.715 89.0549 277.437 87.8075 279.424 85.7075L279.79 85.8602L279.515 88.4855C277.071 90.3231 274.092 91.3095 271.035 91.294C268.424 91.543 265.799 90.9899 263.51 89.7082C261.221 88.4265 259.377 86.4773 258.223 84.1201C257.252 82.017 256.772 79.7204 256.82 77.4042C256.75 74.8406 257.383 72.3067 258.65 70.0776C259.869 68.0407 261.648 66.3981 263.775 65.346C266.09 64.2463 268.626 63.6928 271.188 63.7281C274.264 63.6434 277.301 64.4376 279.942 66.0176L278.6 69.7113ZM244.13 57.2258C243.758 57.2387 243.387 57.1749 243.041 57.0383C242.694 56.9018 242.38 56.6954 242.117 56.4321C241.842 56.1809 241.623 55.874 241.476 55.5319C241.329 55.1898 241.256 54.8203 241.262 54.4478C241.261 54.0743 241.332 53.704 241.474 53.3583C241.615 53.0125 241.823 52.6981 242.086 52.433C242.346 52.1507 242.662 51.9261 243.014 51.7737C243.366 51.6212 243.746 51.5442 244.13 51.5477C244.499 51.5513 244.863 51.6319 245.199 51.7844C245.535 51.9368 245.836 52.1577 246.082 52.433C246.345 52.6981 246.553 53.0125 246.695 53.3583C246.836 53.704 246.908 54.0743 246.906 54.4478C246.912 54.8157 246.839 55.1806 246.691 55.5178C246.544 55.8549 246.326 56.1563 246.052 56.4015C245.805 56.6634 245.507 56.8718 245.176 57.0136C244.846 57.1553 244.49 57.2276 244.13 57.2258ZM241.445 64.0944C242.339 64.1601 243.236 64.1601 244.13 64.0944C244.84 64.1603 245.555 64.1603 246.265 64.0944C246.052 68.0629 245.93 72.4588 245.93 77.282C245.93 81.6169 245.93 85.8602 246.204 90.0424V90.5918C245.412 90.5456 244.617 90.5456 243.825 90.5918C243.013 90.5102 242.196 90.5102 241.384 90.5918C241.598 86.6233 241.72 82.1664 241.72 77.282C241.72 71.5735 241.72 67.2997 241.445 64.4912V64.0944ZM228.603 82.6243L228.786 88.0581V90.5613C227.984 90.4936 227.178 90.4936 226.376 90.5613C225.626 90.4824 224.869 90.4824 224.119 90.5613C224.119 89.9813 224.119 89.1876 224.119 88.1497C224.119 87.1118 224.119 86.3181 224.119 85.738L224.393 79.6326C224.393 79.1747 224.393 78.5642 224.393 77.7094C224.393 76.8547 224.393 76.2441 224.393 75.8473C224.541 73.9495 224.27 72.0425 223.6 70.2608C223.136 69.1468 222.352 68.1955 221.347 67.5272C220.343 66.8588 219.163 66.5035 217.957 66.506C216.721 66.4202 215.488 66.6947 214.405 67.296C213.322 67.8974 212.437 68.8 211.856 69.8945C210.877 72.3773 210.461 75.0462 210.636 77.7094V86.8675L210.819 90.2255V90.5613C210.067 90.5132 209.313 90.5132 208.561 90.5613C207.811 90.4796 207.054 90.4796 206.304 90.5613C206.304 89.8287 206.304 88.8213 206.304 87.5086C206.304 86.196 206.304 85.0054 206.304 83.9064C206.304 79.48 206.304 76.1526 206.304 73.9241C206.304 72.6419 206.304 70.8714 206.304 68.5208C206.304 67.5134 206.304 66.0176 206.304 64.0639C207.015 64.1148 207.728 64.1148 208.439 64.0639C209.17 64.1299 209.905 64.1299 210.636 64.0639V65.2849L210.453 67.0249V69.1924C211.334 67.5409 212.656 66.1669 214.272 65.2236C215.888 64.2803 217.734 63.8048 219.604 63.8501C220.91 63.7553 222.22 63.9588 223.435 64.4454C224.651 64.9319 225.74 65.6888 226.62 66.6586C227.414 67.6474 227.968 68.8075 228.237 70.0471C228.458 71.5632 228.56 73.0942 228.542 74.6262L228.603 82.6243ZM191.784 57.2258C191.414 57.2339 191.047 57.1681 190.703 57.0321C190.359 56.8961 190.046 56.6928 189.781 56.434C189.517 56.1753 189.307 55.8662 189.164 55.5252C189.02 55.1841 188.947 54.8178 188.947 54.4478C188.945 54.0743 189.017 53.704 189.158 53.3583C189.299 53.0125 189.507 52.6981 189.77 52.433C190.025 52.1516 190.335 51.9272 190.682 51.7746C191.029 51.622 191.405 51.5447 191.784 51.5477C192.154 51.5455 192.52 51.6234 192.857 51.7763C193.194 51.9291 193.494 52.1531 193.736 52.433C193.999 52.6981 194.207 53.0125 194.348 53.3583C194.49 53.704 194.562 54.0743 194.56 54.4478C194.552 55.1821 194.257 55.8841 193.738 56.4034C193.219 56.9226 192.517 57.2178 191.784 57.2258ZM189.13 64.0944C190.013 64.1604 190.9 64.1604 191.784 64.0944C192.504 64.1613 193.229 64.1613 193.95 64.0944C193.736 68.0629 193.614 72.4588 193.614 77.282C193.614 81.6169 193.614 85.8602 193.858 90.0424V90.5918C193.055 90.5454 192.251 90.5454 191.448 90.5918C190.647 90.5104 189.84 90.5104 189.038 90.5918C189.252 86.6233 189.374 82.1664 189.374 77.282C189.374 71.5735 189.374 67.2997 189.099 64.4912L189.13 64.0944ZM175.067 84.2117V90.0424V90.5918H173.572C172.078 90.5918 170.979 90.5918 170.308 90.5918V88.9434L170.735 75.9694V54.2036L170.552 49.1056V48.6782L171.254 48.8613H174.732C174.958 48.8626 175.18 48.7991 175.372 48.6782V50.2656L174.976 62.4764L175.067 84.2117ZM158.595 69.7113H158.168C157.739 69.0461 157.249 68.4226 156.703 67.8492C155.989 67.1293 155.139 66.5586 154.202 66.1702C153.248 65.7188 152.207 65.4793 151.151 65.4681C149.779 65.4145 148.415 65.7014 147.18 66.3032C145.945 66.9051 144.878 67.8032 144.074 68.9176C142.344 71.2998 141.443 74.1851 141.512 77.1294C141.371 80.1354 142.289 83.0955 144.105 85.4938C144.994 86.6632 146.157 87.5962 147.491 88.2107C148.813 88.8504 150.262 89.1843 151.731 89.1876C154.626 89.0533 157.358 87.8067 159.357 85.7075L159.693 85.8602L159.449 88.4855C156.991 90.3194 154.004 91.305 150.938 91.294C148.327 91.543 145.702 90.9899 143.413 89.7082C141.124 88.4265 139.28 86.4773 138.126 84.1201C137.155 82.017 136.675 79.7204 136.723 77.4042C136.662 74.8377 137.306 72.3037 138.583 70.0776C139.795 68.0351 141.576 66.3908 143.708 65.346C146.013 64.2498 148.539 63.6964 151.09 63.7281C154.168 63.6366 157.206 64.4313 159.845 66.0176L158.595 69.7113ZM300.655 8.84036C300.699 9.29721 300.699 9.75723 300.655 10.2141L300.32 16.9606H306.207V19.2501L300.32 19.0669C300.21 19.4645 300.159 19.8758 300.167 20.288V32.4988V34.7579C300.097 36.4483 300.389 38.1342 301.021 39.7032C301.327 40.3385 301.824 40.8623 302.442 41.2015C303.06 41.5408 303.768 41.6787 304.468 41.5959C304.901 41.5868 305.331 41.5253 305.749 41.4127L307 41.1686V42.5423C305.501 43.07 303.922 43.3384 302.333 43.336H301.57H300.777L299.893 43.1833C299.018 42.984 298.228 42.514 297.635 41.8401C296.971 41.1456 296.471 40.3112 296.171 39.398C295.923 37.9257 295.811 36.4338 295.835 34.941L296.171 25.1419V19.189L292.541 19.3722V16.9911L296.171 17.1743C296.171 16.4722 296.171 15.4037 296.171 14.1216C296.171 12.8394 296.171 11.7099 296.171 11.0689L300.655 8.84036ZM271.798 35.6126L271.615 16.869V16.4416L272.835 16.6248C273.855 16.6411 274.875 16.5799 275.885 16.4416L275.641 20.288V21.6312V21.967L276.068 21.2649C276.931 19.8157 278.047 18.5335 279.363 17.4795C280.753 16.5067 282.427 16.0235 284.122 16.1058C284.306 16.2185 284.516 16.2816 284.732 16.289L284.457 17.6627V19.0059V20.1354V20.8375L284.03 20.9902L283.786 20.8375C283.686 20.7398 283.558 20.6758 283.42 20.6544C282.832 20.2728 282.137 20.0908 281.437 20.1354C280.783 20.0915 280.127 20.1918 279.515 20.4291C278.904 20.6665 278.352 21.0351 277.899 21.5091C277.278 22.1851 276.773 22.9586 276.404 23.7987C275.862 25.9109 275.636 28.0918 275.733 30.2704V37.1085V42.5423V42.9696C274.969 42.8255 274.192 42.7641 273.414 42.7865C272.71 42.8069 272.007 42.8681 271.31 42.9696V41.4738L271.798 35.6126ZM250.017 17.7543C248.931 17.6997 247.849 17.9268 246.877 18.4135C245.904 18.9002 245.073 19.63 244.465 20.5322C243.13 22.5531 242.352 24.8908 242.208 27.3092H245.838H249.499H253.251H256.942C256.942 20.9291 254.532 17.7543 250.017 17.7543ZM261.274 29.4767L250.017 29.324L242.117 29.4767C241.955 32.5607 242.848 35.6079 244.648 38.1159C245.522 39.1495 246.626 39.964 247.871 40.4941C249.115 41.0242 250.467 41.2552 251.817 41.1686C253.261 41.1522 254.686 40.8296 255.996 40.2222C257.324 39.6472 258.526 38.8176 259.535 37.7801C259.761 37.5874 260.035 37.4607 260.328 37.4137L259.962 40.2222C257.229 42.3258 253.892 43.4926 250.444 43.5497C249.142 43.4234 247.848 43.2195 246.57 42.9391C245.087 42.5962 243.693 41.9406 242.483 41.0159C241.246 40.0937 240.208 38.9307 239.432 37.5969C238.018 35.22 237.319 32.4854 237.419 29.7209C237.443 27.8334 237.751 25.9603 238.334 24.165C238.842 22.46 239.717 20.8867 240.896 19.5554C242.067 18.3141 243.489 17.337 245.067 16.6895C246.645 16.042 248.343 15.7389 250.048 15.8005C251.558 15.7054 253.071 15.928 254.489 16.4538C255.908 16.9796 257.2 17.7969 258.284 18.8532C260.286 21.1758 261.371 24.1506 261.335 27.2177L261.274 29.4767ZM221.922 21.2649C221.283 20.2438 220.403 19.3949 219.36 18.7922C218.324 18.1828 217.145 17.8564 215.943 17.8458C214.665 17.8138 213.405 18.1584 212.32 18.8368C211.236 19.5152 210.374 20.4975 209.843 21.6617C208.549 24.3767 207.902 27.3546 207.951 30.362C207.969 32.1384 208.226 33.9044 208.714 35.6126C209.172 37.3718 210.257 38.9028 211.764 39.9169C213.064 40.8 214.619 41.2292 216.188 41.138C217.546 41.1406 218.866 40.6894 219.94 39.8559C221.077 38.9845 221.961 37.8253 222.502 36.4979C222.967 35.3647 223.275 34.1733 223.417 32.9568C223.635 31.6445 223.757 30.3182 223.783 28.9882C223.87 26.3112 223.283 23.6552 222.075 21.2649H221.922ZM207.951 42.6338V47.6097L208.134 54.5394H207.616H204.321C204.15 54.5709 203.974 54.5709 203.803 54.5394H203.528C203.542 53.8643 203.603 53.191 203.711 52.5246V49.1056L203.894 44.3128V16.8385H204.382H205.419C206.237 16.8624 207.055 16.801 207.86 16.6553V21.9975C207.86 21.9975 207.86 21.8144 208.104 21.6617L208.897 20.2575C209.911 18.9348 211.176 17.8248 212.618 16.9911C214.112 16.3164 215.74 15.9927 217.377 16.0448C219.491 16.0026 221.567 16.6099 223.326 17.7848C225.031 18.9534 226.382 20.5694 227.23 22.4555C228.132 24.4606 228.589 26.637 228.572 28.8356C228.69 32.5136 227.62 36.1317 225.522 39.1538C224.47 40.5754 223.086 41.7168 221.49 42.4779C219.894 43.2391 218.136 43.5966 216.371 43.5191C214.573 43.5431 212.805 43.057 211.271 42.1169C209.738 41.1768 208.502 39.8214 207.707 38.2074V42.7559L207.951 42.6338ZM185.53 25.2029L182.846 28.5303L193.248 42.7254V43.0612C192.33 42.9185 191.401 42.8572 190.472 42.8781C189.604 42.8569 188.736 42.9182 187.879 43.0612C187.666 42.6949 187.33 42.1759 186.903 41.5349C186.476 40.8938 185.835 39.9169 185.042 38.6653L180.192 31.7052C179.673 32.4378 179.124 33.1399 178.606 33.9031L177.08 36.04L174.305 40.0085L172.322 43.0612C171.808 42.9632 171.288 42.902 170.766 42.8781C170.15 42.8528 169.534 42.9144 168.936 43.0612V42.7254L169.698 41.657L172.901 37.8106L179.002 30.0262L169.058 16.5332H169.485C170.298 16.5766 171.112 16.5766 171.925 16.5332C172.844 16.5582 173.763 16.4968 174.671 16.35L177.447 20.7459L179.795 24.0429L181.687 26.6682L184.737 22.6691L189.221 16.35C189.854 16.4774 190.498 16.5388 191.143 16.5332C191.819 16.5524 192.495 16.4909 193.156 16.35L191.997 17.6627C191.509 18.2122 190.991 18.7617 190.503 19.3417C190.014 19.9217 189.526 20.4407 189.069 20.9902L185.53 25.2029ZM153.561 4.90239C154.842 4.90239 156.612 4.9024 159.266 4.71924C159.287 4.98336 159.287 5.24881 159.266 5.51293C159.24 5.80747 159.24 6.10365 159.266 6.39819C159.239 6.96222 159.29 7.52728 159.418 8.07719L157.161 7.89403L154.476 7.71088L148.955 7.52772H144.562L144.318 15.9227V21.6312H149.931L152.982 21.4481L155.483 21.2954H157.954C157.771 22.3333 157.679 22.9134 157.679 22.9439C157.679 22.9744 157.679 23.5544 157.954 24.6228C156.305 24.4081 154.645 24.2858 152.982 24.2565H149.931H144.318V35.7042C144.318 37.8716 144.318 39.4895 144.318 40.619C147.643 40.619 150.968 40.6191 154.263 40.3443C155.951 40.3352 157.634 40.1819 159.296 39.8864C159.296 41.3822 159.296 42.4812 159.296 43.2444H155.453C152.402 43.2444 150.175 43.0612 148.65 43.0612H146.21H144.074H141.847H139.499L139.834 36.0705V16.8995V11.9846C139.834 11.3436 139.834 8.93197 139.56 4.81082L145.661 4.99397L153.561 4.90239Z" fill="#C9CFD6"/>
</svg>
