<svg width="210" height="63" viewBox="0 0 210 63" fill="none" xmlns="http://www.w3.org/2000/svg">
<path d="M26.7508 29.1509C27.0059 24.383 28.3614 19.7391 30.711 15.5835C33.0606 11.428 36.3404 7.87371 40.2931 5.19961C35.3867 3.33391 30.0449 2.93271 24.9152 4.04465C19.7855 5.15658 15.0883 7.7339 11.3932 11.4641C6.69289 16.2184 3.87556 22.5175 3.46392 29.1927L26.7508 29.1509ZM43.9865 6.91192C41.8099 8.15672 39.8098 9.68772 38.0395 11.4641C33.3407 16.2257 30.5303 22.5334 30.1312 29.2135H57.8C57.4078 22.5214 54.5883 16.2026 49.8708 11.4432C48.1248 9.67741 46.1449 8.15976 43.9865 6.93279V6.91192ZM26.7508 32.6381H9.82684e-05V30.9049C-0.0205259 22.7095 3.20598 14.8401 8.97265 9.02096C13.4557 4.49127 19.2467 1.48426 25.5287 0.424001C31.8107 -0.636256 38.2668 0.303745 43.9865 3.11144C50.5221 -0.0727094 57.9791 -0.816823 65.0144 1.01315C72.0496 2.84311 78.2007 7.12688 82.3598 13.0929L79.5846 15.181C77.0659 11.5896 73.7245 8.65396 69.8399 6.61955C66.4581 4.83491 62.7374 3.78586 58.922 3.54115C55.1066 3.29644 51.2825 3.8616 47.7007 5.19961C51.888 8.05362 55.315 11.8884 57.6834 16.3703C60.0518 20.8522 61.2899 25.8454 61.2899 30.9154C61.2899 35.9854 60.0518 40.9786 57.6834 45.4604C55.315 49.9423 51.888 53.7772 47.7007 56.6312C53.3168 58.7667 59.4825 58.9759 65.2304 57.2261C70.9782 55.4763 75.9829 51.8665 79.4594 46.9629L82.2346 49.0511C79.4145 52.9799 75.7123 56.1913 71.4258 58.427C67.2098 60.6096 62.5419 61.7747 57.7954 61.8291C53.049 61.8834 48.3557 60.8256 44.0908 58.7402C39.812 60.8361 35.1002 61.8943 30.3367 61.829C25.5733 61.7637 20.8922 60.5768 16.6723 58.3643C12.2975 56.0787 8.5392 52.769 5.71749 48.717L8.49272 46.6288C11.0114 50.2202 14.3527 53.1559 18.2373 55.1903C21.631 56.9577 25.3598 57.9867 29.179 58.2099C32.9982 58.433 36.8213 57.8452 40.3974 56.485C36.442 53.8088 33.1605 50.2512 30.8108 46.0918C28.461 41.9323 27.107 37.2843 26.8552 32.5128L26.7508 32.6381ZM57.9044 32.5128H30.1938C30.5604 39.2006 33.3497 45.5256 38.0395 50.304C39.7926 52.0677 41.7712 53.5913 43.9239 54.8353C46.0836 53.6019 48.0636 52.0772 49.8082 50.304C54.5074 45.5745 57.3259 39.295 57.7374 32.6381" fill="#EE1C1F"/>
<path d="M197.814 58.0098C198.309 58.7928 198.972 59.4561 199.755 59.9518C200.478 60.438 201.325 60.7061 202.196 60.7244C203.145 60.721 204.062 60.3806 204.783 59.7639C205.142 59.4765 205.43 59.1106 205.626 58.6942C205.821 58.2779 205.918 57.8223 205.91 57.3625C205.966 56.9114 205.899 56.4536 205.715 56.038C205.532 55.6223 205.238 55.2645 204.867 55.0029C203.81 54.4342 202.689 53.9927 201.528 53.6873C200.448 53.4026 199.429 52.9212 198.523 52.2673C198.039 51.8376 197.652 51.3104 197.386 50.7202C197.119 50.13 196.981 49.4902 196.979 48.8427C196.939 48.0596 197.076 47.2775 197.379 46.5544C197.683 45.8314 198.145 45.1861 198.732 44.6664C199.97 43.6524 201.536 43.1253 203.135 43.1838C204.527 43.1841 205.902 43.4906 207.162 44.0817H207.287H207.412C207.06 44.954 206.761 45.8465 206.515 46.7546H206.161C205.897 46.0855 205.466 45.4957 204.909 45.0423C204.367 44.5791 203.68 44.3205 202.968 44.3114C202.073 44.2801 201.197 44.5771 200.506 45.1467C200.179 45.4252 199.92 45.7754 199.75 46.1701C199.58 46.5649 199.503 46.9935 199.525 47.4228C199.487 47.8509 199.55 48.282 199.71 48.6811C199.869 49.0802 200.121 49.436 200.443 49.7198C201.256 50.2851 202.17 50.6892 203.135 50.91C204.33 51.1841 205.486 51.605 206.578 52.163C207.162 52.5919 207.637 53.1513 207.967 53.7965C208.296 54.4418 208.471 55.1552 208.477 55.8799C208.458 56.9321 208.163 57.9608 207.621 58.8625C207.078 59.7643 206.309 60.5072 205.388 61.0168C204.206 61.6974 202.847 62.01 201.486 61.9147C199.829 61.9532 198.192 61.5418 196.75 60.7244C197.23 59.1374 197.48 58.1978 197.522 57.9054L197.814 58.0098ZM190.573 47.3184H190.365C190.078 46.8584 189.742 46.4313 189.363 46.0446C188.886 45.5477 188.31 45.1565 187.673 44.8961C187.02 44.5873 186.308 44.4235 185.586 44.4158C184.638 44.3743 183.694 44.5679 182.838 44.9796C181.983 45.3913 181.242 46.0082 180.683 46.7755C179.499 48.4049 178.883 50.3786 178.93 52.3927C178.841 54.4511 179.476 56.4756 180.724 58.1142C181.33 58.908 182.117 59.5452 183.02 59.9727C183.932 60.41 184.93 60.6382 185.941 60.6409C187.915 60.5501 189.778 59.6968 191.137 58.2604L191.387 58.3648L191.199 60.1606C189.527 61.4176 187.49 62.0924 185.398 62.0817C183.612 62.2521 181.817 61.8737 180.251 60.997C178.685 60.1203 177.424 58.7869 176.635 57.1745C175.97 55.736 175.642 54.165 175.675 52.5806C175.627 50.827 176.06 49.0937 176.927 47.569C177.76 46.1756 178.977 45.052 180.432 44.3323C182.016 43.5801 183.75 43.2015 185.503 43.2256C187.607 43.1677 189.684 43.711 191.491 44.7917L190.573 47.3184ZM166.994 38.7778C166.74 38.7866 166.486 38.743 166.249 38.6496C166.012 38.5562 165.797 38.415 165.617 38.2349C165.429 38.0631 165.28 37.8532 165.179 37.6191C165.078 37.3851 165.028 37.1323 165.033 36.8776C165.032 36.622 165.081 36.3688 165.177 36.1323C165.274 35.8958 165.416 35.6807 165.596 35.4994C165.774 35.3063 165.99 35.1526 166.231 35.0483C166.472 34.944 166.732 34.8914 166.994 34.8938C167.247 34.8963 167.496 34.9514 167.726 35.0557C167.956 35.1599 168.161 35.311 168.33 35.4994C168.51 35.6807 168.652 35.8958 168.749 36.1323C168.845 36.3688 168.894 36.622 168.893 36.8776C168.897 37.1292 168.847 37.3788 168.746 37.6094C168.646 37.84 168.496 38.0462 168.309 38.214C168.14 38.3931 167.936 38.5356 167.71 38.6326C167.484 38.7296 167.24 38.779 166.994 38.7778ZM165.158 43.4762C165.769 43.5211 166.383 43.5211 166.994 43.4762C167.48 43.5213 167.969 43.5213 168.455 43.4762C168.309 46.1908 168.225 49.1977 168.225 52.497C168.225 55.4622 168.225 58.3648 168.413 61.2256V61.6014C167.871 61.5698 167.328 61.5698 166.786 61.6014C166.231 61.5456 165.671 61.5456 165.116 61.6014C165.262 58.8868 165.346 55.8381 165.346 52.497C165.346 48.5922 165.346 45.6688 165.158 43.7476V43.4762ZM156.373 56.1513L156.498 59.8683V61.5806C155.95 61.5343 155.399 61.5343 154.85 61.5806C154.337 61.5266 153.819 61.5266 153.306 61.5806C153.306 61.1838 153.306 60.6409 153.306 59.9309C153.306 59.221 153.306 58.678 153.306 58.2813L153.494 54.1049C153.494 53.7917 153.494 53.3741 153.494 52.7894C153.494 52.2047 153.494 51.7871 153.494 51.5156C153.595 50.2174 153.409 48.913 152.951 47.6943C152.634 46.9322 152.097 46.2815 151.41 45.8243C150.723 45.3672 149.916 45.1241 149.091 45.1258C148.246 45.0671 147.402 45.2549 146.661 45.6662C145.921 46.0776 145.315 46.695 144.918 47.4437C144.248 49.142 143.963 50.9677 144.083 52.7894V59.0539L144.208 61.3509V61.5806C143.694 61.5476 143.178 61.5476 142.664 61.5806C142.151 61.5247 141.633 61.5247 141.12 61.5806C141.12 61.0794 141.12 60.3903 141.12 59.4924C141.12 58.5945 141.12 57.7801 141.12 57.0284C141.12 54.0005 141.12 51.7244 141.12 50.2001C141.12 49.323 141.12 48.1119 141.12 46.504C141.12 45.8149 141.12 44.7917 141.12 43.4553C141.606 43.4901 142.094 43.4901 142.581 43.4553C143.08 43.5005 143.583 43.5005 144.083 43.4553V44.2906L143.958 45.4808V46.9634C144.561 45.8338 145.465 44.8939 146.57 44.2486C147.676 43.6034 148.938 43.2781 150.218 43.3091C151.111 43.2442 152.007 43.3834 152.839 43.7163C153.67 44.0491 154.415 44.5668 155.017 45.2302C155.56 45.9066 155.939 46.7001 156.123 47.5481C156.274 48.5851 156.344 49.6324 156.332 50.6803L156.373 56.1513ZM131.188 38.7778C130.935 38.7834 130.683 38.7383 130.448 38.6453C130.213 38.5523 129.999 38.4132 129.818 38.2362C129.637 38.0592 129.493 37.8478 129.395 37.6145C129.297 37.3812 129.247 37.1306 129.247 36.8776C129.246 36.622 129.295 36.3688 129.391 36.1323C129.488 35.8958 129.63 35.6807 129.81 35.4994C129.984 35.3068 130.197 35.1533 130.434 35.049C130.672 34.9446 130.928 34.8917 131.188 34.8938C131.441 34.8923 131.691 34.9456 131.922 35.0501C132.152 35.1547 132.357 35.3079 132.523 35.4994C132.703 35.6807 132.845 35.8958 132.942 36.1323C133.039 36.3688 133.088 36.622 133.086 36.8776C133.081 37.3798 132.879 37.86 132.524 38.2152C132.169 38.5704 131.689 38.7724 131.188 38.7778ZM129.372 43.4762C129.976 43.5213 130.583 43.5213 131.188 43.4762C131.68 43.522 132.176 43.522 132.669 43.4762C132.523 46.1908 132.44 49.1977 132.44 52.497C132.44 55.4622 132.44 58.3648 132.606 61.2256V61.6014C132.057 61.5697 131.507 61.5697 130.958 61.6014C130.41 61.5457 129.858 61.5457 129.31 61.6014C129.456 58.8868 129.539 55.8381 129.539 52.497C129.539 48.5922 129.539 45.6688 129.351 43.7476L129.372 43.4762ZM119.753 57.2372V61.2256V61.6014H118.73C117.708 61.6014 116.957 61.6014 116.498 61.6014V60.4738L116.79 51.5991V36.7105L116.665 33.2233V32.9309L117.144 33.0562H119.523C119.678 33.0571 119.83 33.0136 119.961 32.9309V34.0168L119.69 42.3694L119.753 57.2372ZM108.485 47.3184H108.193C107.9 46.8633 107.564 46.4369 107.191 46.0446C106.702 45.5522 106.121 45.1618 105.48 44.8961C104.827 44.5873 104.116 44.4235 103.393 44.4158C102.455 44.3792 101.521 44.5754 100.677 44.9871C99.8322 45.3988 99.1024 46.0132 98.5525 46.7755C97.3687 48.4049 96.7528 50.3786 96.7997 52.3927C96.7033 54.4488 97.331 56.4736 98.5734 58.1142C99.1817 58.9141 99.9771 59.5523 100.89 59.9727C101.794 60.4103 102.785 60.6387 103.79 60.6409C105.77 60.549 107.639 59.6963 109.007 58.2604L109.236 58.3648L109.069 60.1606C107.388 61.4151 105.345 62.0893 103.247 62.0817C101.461 62.2521 99.6659 61.8737 98.1001 60.997C96.5344 60.1203 95.2728 58.7869 94.4835 57.1745C93.8194 55.736 93.4911 54.165 93.5237 52.5806C93.4822 50.825 93.9225 49.0917 94.7965 47.569C95.6256 46.1718 96.8438 45.047 98.3021 44.3323C99.8788 43.5825 101.606 43.2039 103.352 43.2256C105.457 43.163 107.535 43.7066 109.34 44.7917L108.485 47.3184ZM205.66 5.68033C205.69 5.99283 205.69 6.30751 205.66 6.62L205.43 11.2349H209.457V12.801L205.43 12.6757C205.355 12.9476 205.32 13.229 205.326 13.511V21.8636V23.4089C205.278 24.5652 205.477 25.7184 205.91 26.7917C206.12 27.2262 206.459 27.5845 206.882 27.8166C207.305 28.0487 207.789 28.143 208.268 28.0864C208.564 28.0801 208.858 28.038 209.144 27.9611L210 27.794V28.7337C208.974 29.0947 207.895 29.2783 206.807 29.2766H206.286H205.743L205.138 29.1722C204.54 29.0359 203.999 28.7144 203.594 28.2534C203.14 27.7783 202.797 27.2076 202.592 26.5829C202.423 25.5758 202.346 24.5553 202.363 23.5342L202.592 16.8312V12.7592L200.109 12.8845V11.2557L202.592 11.3811C202.592 10.9008 202.592 10.1699 202.592 9.29289C202.592 8.41586 202.592 7.64323 202.592 7.20472L205.66 5.68033ZM185.92 23.9936L185.795 11.1722V10.8799L186.63 11.0052C187.327 11.0164 188.025 10.9745 188.716 10.8799L188.549 13.511V14.4298V14.6595L188.841 14.1792C189.431 13.1879 190.195 12.3108 191.095 11.5899C192.046 10.9244 193.191 10.5939 194.35 10.6502C194.476 10.7273 194.62 10.7704 194.767 10.7755L194.58 11.7151V12.6339V13.4065V13.8868L194.288 13.9913L194.121 13.8868C194.052 13.82 193.965 13.7762 193.87 13.7616C193.468 13.5006 192.992 13.3761 192.514 13.4065C192.066 13.3765 191.618 13.4451 191.199 13.6075C190.781 13.7698 190.404 14.022 190.093 14.3462C189.669 14.8086 189.324 15.3377 189.071 15.9124C188.7 17.3572 188.546 18.849 188.612 20.3393V25.0168V28.7337V29.0261C188.089 28.9274 187.558 28.8854 187.026 28.9008C186.544 28.9148 186.063 28.9566 185.586 29.0261V28.0028L185.92 23.9936ZM171.022 11.7778C170.279 11.7404 169.539 11.8958 168.873 12.2287C168.208 12.5616 167.64 13.0608 167.224 13.678C166.311 15.0604 165.778 16.6595 165.68 18.3138H168.163H170.667H173.233H175.758C175.758 13.9495 174.11 11.7778 171.022 11.7778ZM178.721 19.7964L171.022 19.6919L165.617 19.7964C165.506 21.9059 166.117 23.9903 167.349 25.7059C167.947 26.4129 168.702 26.9701 169.553 27.3327C170.405 27.6953 171.329 27.8533 172.253 27.794C173.241 27.7829 174.215 27.5622 175.111 27.1467C176.019 26.7534 176.842 26.1859 177.532 25.4762C177.686 25.3444 177.874 25.2577 178.074 25.2256L177.824 27.1467C175.955 28.5857 173.672 29.3838 171.314 29.4228C170.423 29.3364 169.538 29.197 168.664 29.0052C167.649 28.7706 166.695 28.3221 165.868 27.6896C165.022 27.0588 164.312 26.2632 163.781 25.3509C162.813 23.725 162.335 21.8544 162.404 19.9634C162.42 18.6723 162.631 17.391 163.03 16.1629C163.377 14.9967 163.976 13.9205 164.782 13.0098C165.583 12.1607 166.556 11.4923 167.635 11.0494C168.715 10.6065 169.876 10.3992 171.042 10.4414C172.075 10.3763 173.11 10.5285 174.08 10.8882C175.051 11.2479 175.935 11.807 176.676 12.5295C178.046 14.1183 178.788 16.1531 178.763 18.2511L178.721 19.7964ZM151.804 14.1792C151.366 13.4807 150.764 12.9001 150.051 12.4878C149.342 12.0709 148.536 11.8477 147.714 11.8404C146.839 11.8185 145.977 12.0542 145.235 12.5183C144.493 12.9823 143.904 13.6543 143.54 14.4506C142.656 16.3078 142.213 18.3448 142.247 20.4019C142.259 21.6171 142.435 22.8251 142.768 23.9936C143.082 25.1969 143.824 26.2442 144.855 26.9379C145.744 27.542 146.808 27.8355 147.881 27.7731C148.81 27.7749 149.713 27.4663 150.447 26.8961C151.225 26.3001 151.83 25.5072 152.2 24.5991C152.518 23.824 152.728 23.009 152.826 22.1769C152.975 21.2793 153.059 20.372 153.076 19.4622C153.136 17.631 152.734 15.8142 151.908 14.1792H151.804ZM142.247 28.7964V32.2L142.372 36.9402H142.017H139.764C139.646 36.9618 139.526 36.9618 139.409 36.9402H139.221C139.23 36.4784 139.272 36.0179 139.346 35.562V33.2233L139.472 29.9449V11.1514H139.805H140.515C141.074 11.1677 141.634 11.1257 142.184 11.026V14.6803C142.184 14.6803 142.184 14.555 142.351 14.4506L142.894 13.4901C143.587 12.5853 144.452 11.8261 145.439 11.2557C146.461 10.7943 147.574 10.5728 148.694 10.6084C150.14 10.5796 151.561 10.995 152.763 11.7987C153.93 12.5981 154.854 13.7034 155.434 14.9936C156.051 16.3652 156.364 17.8539 156.352 19.3578C156.433 21.8737 155.701 24.3486 154.266 26.4158C153.546 27.3883 152.599 28.1691 151.508 28.6897C150.416 29.2104 149.214 29.4549 148.006 29.4019C146.776 29.4183 145.567 29.0858 144.518 28.4427C143.469 27.7997 142.624 26.8725 142.08 25.7685V28.8799L142.247 28.7964ZM126.91 16.8729L125.074 19.149L132.189 28.859V29.0887C131.561 28.991 130.926 28.9491 130.29 28.9634C129.696 28.9489 129.103 28.9909 128.517 29.0887C128.371 28.8381 128.141 28.4831 127.849 28.0446C127.557 27.6061 127.119 26.9379 126.576 26.0817L123.258 21.3207C122.904 21.8219 122.528 22.3022 122.173 22.8242L121.13 24.2859L119.231 27.0005L117.875 29.0887C117.523 29.0216 117.168 28.9798 116.811 28.9634C116.389 28.9461 115.968 28.9883 115.559 29.0887V28.859L116.08 28.1281L118.271 25.497L122.445 20.1722L115.642 10.9425H115.934C116.49 10.9722 117.047 10.9722 117.604 10.9425C118.232 10.9596 118.861 10.9177 119.481 10.8172L121.38 13.8242L122.987 16.0794L124.281 17.8753L126.367 15.1397L129.435 10.8172C129.867 10.9044 130.308 10.9463 130.749 10.9425C131.212 10.9557 131.674 10.9136 132.127 10.8172L131.334 11.7151C131 12.091 130.645 12.4669 130.311 12.8636C129.977 13.2604 129.643 13.6154 129.33 13.9913L126.91 16.8729ZM105.042 2.98661C105.918 2.98661 107.129 2.98662 108.944 2.86133C108.959 3.042 108.959 3.22357 108.944 3.40424C108.927 3.60572 108.927 3.80832 108.944 4.00979C108.925 4.39561 108.961 4.78213 109.048 5.15829L107.504 5.03301L105.668 4.90772L101.891 4.78244H98.8864L98.7194 10.5249V14.4298H102.559L104.645 14.3045L106.357 14.2001H108.047C107.922 14.91 107.859 15.3068 107.859 15.3277C107.859 15.3486 107.859 15.7453 108.047 16.4762C106.919 16.3293 105.783 16.2456 104.645 16.2256H102.559H98.7194V24.0562C98.7194 25.5388 98.7194 26.6455 98.7194 27.4182C100.994 27.4182 103.268 27.4182 105.522 27.2302C106.676 27.224 107.828 27.1192 108.965 26.917C108.965 27.9402 108.965 28.6919 108.965 29.214H106.336C104.249 29.214 102.726 29.0887 101.682 29.0887H100.013H98.5525H97.0292H95.4225L95.6521 24.3068V11.1931V7.83114C95.6521 7.39263 95.652 5.743 95.4643 2.92397L99.6375 3.04926L105.042 2.98661Z" fill="#EE1C1F"/>
</svg>
